<svg xmlns="http://www.w3.org/2000/svg" xmlns:xlink="http://www.w3.org/1999/xlink" viewBox="0 0 500 500"><defs><clipPath id="freepik--clip-path--inject-228"><path d="M354.58,205.8a20.66,20.66,0,0,0-20.66,20.63l.05,0s0,2,20.66,2,20.57-2,20.57-2l.05-.05A20.67,20.67,0,0,0,354.58,205.8Z" style="fill:#407BFF"></path></clipPath><clipPath id="freepik--clip-path-2--inject-228"><path d="M354.63,228.46c-3.57,0-6.51-.06-8.95-.16.45,7.91,3.79,11.78,6.13,17.82a25.58,25.58,0,0,1,1,6.14h3.54a25.58,25.58,0,0,1,1-6.14c2.35-6,5.68-9.91,6.14-17.81C361.07,228.4,358.16,228.46,354.63,228.46Z" style="fill:#407BFF"></path></clipPath></defs><g id="freepik--background-complete--inject-228"><rect x="416.78" y="398.49" width="33.12" height="0.25" style="fill:#ebebeb"></rect><rect x="322.53" y="401.21" width="8.69" height="0.25" style="fill:#ebebeb"></rect><rect x="396.59" y="389.21" width="19.19" height="0.25" style="fill:#ebebeb"></rect><rect x="52.46" y="390.89" width="43.19" height="0.25" style="fill:#ebebeb"></rect><rect x="104.56" y="390.89" width="6.33" height="0.25" style="fill:#ebebeb"></rect><rect x="131.47" y="395.11" width="93.68" height="0.25" style="fill:#ebebeb"></rect><path d="M238.4,337.8H45.3a5.71,5.71,0,0,1-5.71-5.71V60.66A5.71,5.71,0,0,1,45.3,55H238.4a5.71,5.71,0,0,1,5.71,5.71V332.09A5.71,5.71,0,0,1,238.4,337.8ZM45.3,55.2a5.47,5.47,0,0,0-5.46,5.46V332.09a5.47,5.47,0,0,0,5.46,5.46H238.4a5.47,5.47,0,0,0,5.46-5.46V60.66a5.47,5.47,0,0,0-5.46-5.46Z" style="fill:#ebebeb"></path><path d="M454.7,337.8H261.6a5.71,5.71,0,0,1-5.71-5.71V60.66A5.71,5.71,0,0,1,261.6,55H454.7a5.71,5.71,0,0,1,5.71,5.71V332.09A5.71,5.71,0,0,1,454.7,337.8ZM261.6,55.2a5.47,5.47,0,0,0-5.46,5.46V332.09a5.47,5.47,0,0,0,5.46,5.46H454.7a5.47,5.47,0,0,0,5.46-5.46V60.66a5.47,5.47,0,0,0-5.46-5.46Z" style="fill:#ebebeb"></path><rect y="382.4" width="500" height="0.25" style="fill:#ebebeb"></rect><rect x="76.5" y="270.71" width="185.13" height="99.63" transform="translate(338.12 641.06) rotate(180)" style="fill:#e6e6e6"></rect><rect x="246.78" y="374.48" width="11.64" height="8.79" transform="translate(505.21 757.75) rotate(180)" style="fill:#e6e6e6"></rect><rect x="62.37" y="263.3" width="11.64" height="119.97" transform="translate(136.37 646.57) rotate(180)" style="fill:#e6e6e6"></rect><path d="M73.86,263.3v120h6.21v-6.72H258.42v6.72h6.21v-120H73.86Zm6.21,10.86h86.07v41.67H80.07Zm178.35,91.53H172.35V274.16h86.07Zm-178.35,0V322h86.07v43.66Z" style="fill:#f5f5f5"></path><rect x="172.35" y="278.64" width="80.26" height="87.05" transform="translate(424.95 644.33) rotate(180)" style="fill:#f5f5f5"></rect><path d="M176,319.56a3.73,3.73,0,1,0,3.73-3.73A3.73,3.73,0,0,0,176,319.56Z" style="fill:#fafafa"></path><path d="M179.71,323.29a3.73,3.73,0,0,0,3.38-2.18,3.63,3.63,0,0,1,.35,1.55,3.73,3.73,0,1,1-7.46,0,3.63,3.63,0,0,1,.35-1.55A3.73,3.73,0,0,0,179.71,323.29Z" style="fill:#e0e0e0"></path><polygon points="221.48 365.69 202.33 365.69 193.18 278.64 212.33 278.64 221.48 365.69" style="fill:#fafafa"></polygon><polygon points="197.43 365.69 193.62 365.69 184.47 278.64 188.28 278.64 197.43 365.69" style="fill:#fafafa"></polygon><rect x="146.74" y="278.56" width="7.58" height="37.23" transform="translate(301.07 594.34) rotate(180)" style="fill:#fafafa"></rect><rect x="115.3" y="278.56" width="7.58" height="37.23" transform="translate(238.18 594.34) rotate(180)" style="fill:#f5f5f5"></rect><rect x="139.16" y="281.17" width="7.58" height="34.62" transform="translate(285.9 596.96) rotate(180)" style="fill:#f5f5f5"></rect><rect x="122.88" y="281.17" width="7.58" height="34.62" transform="translate(253.35 596.96) rotate(180)" style="fill:#fafafa"></rect><rect x="130.46" y="278.56" width="4.9" height="37.23" transform="translate(265.83 594.34) rotate(180)" style="fill:#ebebeb"></rect><rect x="135.37" y="281.17" width="3.79" height="34.62" transform="translate(274.52 596.96) rotate(180)" style="fill:#fafafa"></rect><rect x="107.71" y="278.56" width="7.58" height="37.23" transform="translate(223.01 594.34) rotate(180)" style="fill:#ebebeb"></rect><rect x="100.13" y="281.17" width="7.58" height="34.62" transform="translate(207.84 596.96) rotate(180)" style="fill:#e6e6e6"></rect><rect x="83.85" y="281.17" width="7.58" height="34.62" transform="translate(175.28 596.96) rotate(180)" style="fill:#e6e6e6"></rect><rect x="91.43" y="278.56" width="4.9" height="37.23" transform="translate(187.77 594.34) rotate(180)" style="fill:#fafafa"></rect><rect x="96.34" y="281.17" width="3.79" height="34.62" transform="translate(196.46 596.96) rotate(180)" style="fill:#ebebeb"></rect><rect x="80.06" y="279.44" width="3.79" height="36.35" transform="translate(163.91 595.23) rotate(180)" style="fill:#ebebeb"></rect><rect x="80.06" y="328.46" width="7.58" height="37.23" style="fill:#ebebeb"></rect><rect x="111.5" y="328.46" width="7.58" height="37.23" style="fill:#fafafa"></rect><rect x="87.64" y="331.07" width="7.58" height="34.62" style="fill:#fafafa"></rect><rect x="103.92" y="331.07" width="7.58" height="34.62" style="fill:#ebebeb"></rect><rect x="99.02" y="328.46" width="4.9" height="37.23" style="fill:#fafafa"></rect><rect x="95.23" y="331.07" width="3.79" height="34.62" style="fill:#f5f5f5"></rect><rect x="119.09" y="328.46" width="7.58" height="37.23" style="fill:#ebebeb"></rect><rect x="126.67" y="331.07" width="7.58" height="34.62" style="fill:#f5f5f5"></rect><rect x="142.95" y="331.07" width="7.58" height="34.62" style="fill:#e6e6e6"></rect><rect x="138.05" y="328.46" width="4.9" height="37.23" style="fill:#fafafa"></rect><rect x="154.33" y="328.46" width="4.9" height="37.23" style="fill:#fafafa"></rect><rect x="134.26" y="331.07" width="3.79" height="34.62" style="fill:#ebebeb"></rect><rect x="150.53" y="329.34" width="3.79" height="36.35" style="fill:#ebebeb"></rect><rect x="358.17" y="200.7" width="60.39" height="60.39" style="fill:#f5f5f5"></rect><rect x="364" y="206.53" width="48.73" height="48.73" rx="4.6" style="fill:#ebebeb"></rect><path d="M378.31,219.53a3.68,3.68,0,0,0,3.59,2.91h12.94a3.67,3.67,0,0,0,3.58-2.91Z" style="fill:#fafafa"></path><rect x="358.17" y="261.1" width="60.39" height="60.39" style="fill:#fafafa"></rect><rect x="364" y="266.93" width="48.73" height="48.73" rx="4.6" style="fill:#ebebeb"></rect><path d="M378.31,279.93a3.69,3.69,0,0,0,3.59,2.91h12.94a3.68,3.68,0,0,0,3.58-2.91Z" style="fill:#fafafa"></path><rect x="358.17" y="321.49" width="60.39" height="60.39" style="fill:#f5f5f5"></rect><rect x="364" y="327.32" width="48.73" height="48.73" rx="4.6" style="fill:#ebebeb"></rect><path d="M378.31,340.32a3.69,3.69,0,0,0,3.59,2.91h12.94a3.68,3.68,0,0,0,3.58-2.91Z" style="fill:#fafafa"></path><path d="M378.31,224.53a3.68,3.68,0,0,0,3.59,2.91h12.94a3.67,3.67,0,0,0,3.58-2.91Z" style="fill:#fafafa"></path><path d="M378.31,284.93a3.69,3.69,0,0,0,3.59,2.91h12.94a3.68,3.68,0,0,0,3.58-2.91Z" style="fill:#fafafa"></path><path d="M378.31,345.32a3.69,3.69,0,0,0,3.59,2.91h12.94a3.68,3.68,0,0,0,3.58-2.91Z" style="fill:#fafafa"></path><path d="M378.31,229.53a3.68,3.68,0,0,0,3.59,2.91h12.94a3.67,3.67,0,0,0,3.58-2.91Z" style="fill:#fafafa"></path><path d="M378.31,289.93a3.69,3.69,0,0,0,3.59,2.91h12.94a3.68,3.68,0,0,0,3.58-2.91Z" style="fill:#fafafa"></path><path d="M378.31,350.32a3.69,3.69,0,0,0,3.59,2.91h12.94a3.68,3.68,0,0,0,3.58-2.91Z" style="fill:#fafafa"></path><rect x="418.56" y="200.91" width="12.4" height="180.97" style="fill:#f0f0f0"></rect><path d="M377.37,143c-4,1.56-.68-12.23-12.27-11.93s-12.62,9.84-12.62,9.84S344.27,134,338,138.5s-2.53,6.26-7.67,6.26-11.39,0-12.29,3,76.32,3.87,76.32,0-3.88-3-6.26-3S387.21,139.1,377.37,143Z" style="fill:#f5f5f5"></path><path d="M400.46,128.93c-3.1,1.22-.54-9.51-9.54-9.27s-9.81,7.65-9.81,7.65-6.38-5.34-11.25-1.86-2,4.87-6,4.87-8.85,0-9.55,2.31,59.33,3,59.33,0-3-2.31-4.87-2.31S408.11,125.91,400.46,128.93Z" style="fill:#ebebeb"></path><path d="M133.06,113.64c6.67,2.63,1.15-20.49,20.57-20s21.17,16.49,21.17,16.49,13.76-11.49,24.26-4,4.23,10.5,12.86,10.5,19.09,0,20.61,5-128,6.48-128,0,6.49-5,10.49-5S116.56,107.14,133.06,113.64Z" style="fill:#f0f0f0"></path><path d="M127.05,185.75c-4,1.57-.69-12.22-12.27-11.93s-12.62,9.84-12.62,9.84-8.21-6.85-14.47-2.38-2.53,6.26-7.67,6.26-11.39,0-12.3,3,76.33,3.86,76.33,0-3.88-3-6.27-3S136.89,181.87,127.05,185.75Z" style="fill:#f5f5f5"></path></g><g id="freepik--Shadow--inject-228"><ellipse id="freepik--path--inject-228" cx="250" cy="412.39" rx="193.89" ry="11.32" style="fill:#f5f5f5"></ellipse></g><g id="freepik--Plants--inject-228"><path d="M303.24,394.49c-5.41-1.84-14.33-8.17-13.23-18.64S299.5,381,301.56,377s-11.81-8.38-6.08-17,10.09,7.34,12.86,3.85-11.57-12.15-1.45-21.07,6.55,7.36,11.32,6.09-2.51-8.53,4.54-14.41,13.44-1,9.35,5.4,10.88-.66,11.42,5.32-15.25,8.69-16.21,11.41,14.42-3,14.28.83-3.42,12.92-8.18,13.46-12.89-2.47-14-.29,16.2,1.72,15.13,4.44S329.2,385.3,326,385s-11.68-4.05-12.1-2,15.07,2.88,13,5.12S320.33,400.29,303.24,394.49Z" style="fill:#407BFF"></path><path d="M303.24,394.49c-5.41-1.84-14.33-8.17-13.23-18.64S299.5,381,301.56,377s-11.81-8.38-6.08-17,10.09,7.34,12.86,3.85-11.57-12.15-1.45-21.07,6.55,7.36,11.32,6.09-2.51-8.53,4.54-14.41,13.44-1,9.35,5.4,10.88-.66,11.42,5.32-15.25,8.69-16.21,11.41,14.42-3,14.28.83-3.42,12.92-8.18,13.46-12.89-2.47-14-.29,16.2,1.72,15.13,4.44S329.2,385.3,326,385s-11.68-4.05-12.1-2,15.07,2.88,13,5.12S320.33,400.29,303.24,394.49Z" style="fill:#fff;opacity:0.7000000000000001"></path><path d="M315.53,393c-2.59-3.74-5.28-12,.39-18.17s3.63,7.77,6.83,6.2-3.56-10.94,4.18-13.73,3,9.47,6.38,8.57-1.62-13.25,9.07-14.14.69,7.8,4.33,9.25,2.45-6.63,9.74-7,9,5.74,3.39,7.88,7.27,4.74,4.77,8.81-13.85-1.69-15.75-.41,10.61,4.94,8.72,7.31-8.31,6.62-11.6,4.71-7.06-7.69-8.8-6.83,9.53,8.79,7.56,10-8.29,4-10.15,2.31-5.54-8.13-6.77-7,8.25,9,5.85,9.43S323.68,404.82,315.53,393Z" style="fill:#407BFF"></path><path d="M315.53,393c-2.59-3.74-5.28-12,.39-18.17s3.63,7.77,6.83,6.2-3.56-10.94,4.18-13.73,3,9.47,6.38,8.57-1.62-13.25,9.07-14.14.69,7.8,4.33,9.25,2.45-6.63,9.74-7,9,5.74,3.39,7.88,7.27,4.74,4.77,8.81-13.85-1.69-15.75-.41,10.61,4.94,8.72,7.31-8.31,6.62-11.6,4.71-7.06-7.69-8.8-6.83,9.53,8.79,7.56,10-8.29,4-10.15,2.31-5.54-8.13-6.77-7,8.25,9,5.85,9.43S323.68,404.82,315.53,393Z" style="fill:#fff;opacity:0.4"></path><path d="M177.51,391.62c0,.13.76.43-1.06,1.26-4.5,2.05-12.71,5-17.43,2.09-6.74-4.18,3.48-7.69,1.18-10.57s-12,4.15-15.95.33,4.19-6.08,2.85-8.34-8.27,4.18-13,.32,3.53-4.11,1.53-5.7-14.54-6.44-11.63-9.84,15.07,2.06,18.27,1.88.31-9.21,5.2-7.78,7.81,15.63,12.8,15.52c3.71-.08,0-4.11,4.08-5.54C169.86,363.32,179.14,381.12,177.51,391.62Z" style="fill:#407BFF"></path><path d="M177.51,391.62c0,.13.76.43-1.06,1.26-4.5,2.05-12.71,5-17.43,2.09-6.74-4.18,3.48-7.69,1.18-10.57s-12,4.15-15.95.33,4.19-6.08,2.85-8.34-8.27,4.18-13,.32,3.53-4.11,1.53-5.7-14.54-6.44-11.63-9.84,15.07,2.06,18.27,1.88.31-9.21,5.2-7.78,7.81,15.63,12.8,15.52c3.71-.08,0-4.11,4.08-5.54C169.86,363.32,179.14,381.12,177.51,391.62Z" style="fill:#fff;opacity:0.7000000000000001"></path><path d="M187.66,406.43h0a.32.32,0,0,0,.13-.44c-16.14-29.23-38.88-34.59-39.1-34.64a.32.32,0,0,0-.39.24.32.32,0,0,0,.25.38c.22.05,22.69,5.37,38.68,34.33A.31.31,0,0,0,187.66,406.43Z" style="fill:#407BFF"></path><path d="M154.46,374a.32.32,0,0,0-.16-.61,15.91,15.91,0,0,0-7.05,2.89.33.33,0,0,0-.08.45.31.31,0,0,0,.44.09,15.43,15.43,0,0,1,6.74-2.79Z" style="fill:#407BFF"></path><path d="M159.23,376.4a.32.32,0,0,0,.17-.41c-3.65-9.33-12-14.43-12-14.48a.32.32,0,0,0-.44.11.31.31,0,0,0,.1.44,31.88,31.88,0,0,1,11.78,14.16.33.33,0,0,0,.42.19Z" style="fill:#407BFF"></path><path d="M167.68,382.15a.35.35,0,0,0,.16-.18.32.32,0,0,0-.18-.42,10.28,10.28,0,0,0-10,1.87.33.33,0,0,0,0,.46.32.32,0,0,0,.45,0,9.6,9.6,0,0,1,9.33-1.75A.36.36,0,0,0,167.68,382.15Z" style="fill:#407BFF"></path><path d="M172.64,386.53a.32.32,0,0,0,.19-.29,24,24,0,0,0-3.68-11.92.32.32,0,0,0-.55.33,24,24,0,0,1,3.59,11.58.32.32,0,0,0,.31.32Z" style="fill:#407BFF"></path><path d="M185.37,381.54c-.09.1.42.81-1.64.51-5.09-.74-13.95-2.76-16.44-8-3.56-7.45,7.37-4.78,7-8.59s-12.8-3.09-14.15-8.69,7.09-3,7.19-5.69-9.6-1-11.55-7,5.4-1.62,4.55-4.12-9.12-13.84-4.66-15.18,12,10.29,15,11.93,5.45-7.89,8.93-3.89-2,18.09,2.48,20.79c3.3,2,2.34-3.57,6.69-2.55C194.59,352.44,192.7,373.26,185.37,381.54Z" style="fill:#407BFF"></path><path d="M185.37,381.54c-.09.1.42.81-1.64.51-5.09-.74-13.95-2.76-16.44-8-3.56-7.45,7.37-4.78,7-8.59s-12.8-3.09-14.15-8.69,7.09-3,7.19-5.69-9.6-1-11.55-7,5.4-1.62,4.55-4.12-9.12-13.84-4.66-15.18,12,10.29,15,11.93,5.45-7.89,8.93-3.89-2,18.09,2.48,20.79c3.3,2,2.34-3.57,6.69-2.55C194.59,352.44,192.7,373.26,185.37,381.54Z" style="fill:#fff;opacity:0.7000000000000001"></path><path d="M185.93,400.22h0a.33.33,0,0,0,.35-.32c2.31-34.68-14.59-52.17-14.76-52.34a.33.33,0,0,0-.47,0,.32.32,0,0,0,0,.47c.17.17,16.86,17.47,14.58,51.83A.32.32,0,0,0,185.93,400.22Z" style="fill:#407BFF"></path><path d="M175.09,353.12a.34.34,0,0,0,.35-.17.33.33,0,0,0-.13-.45,16.48,16.48,0,0,0-7.81-1.43.33.33,0,0,0-.32.34.34.34,0,0,0,.34.33,16.23,16.23,0,0,1,7.46,1.34A.3.3,0,0,0,175.09,353.12Z" style="fill:#407BFF"></path><path d="M177.92,357.93a.35.35,0,0,0,.38-.27c2-10.23-2.36-19.37-2.41-19.46a.33.33,0,0,0-.44-.15.34.34,0,0,0-.16.45c.05.08,4.36,9,2.35,19a.33.33,0,0,0,.26.39Z" style="fill:#407BFF"></path><path d="M182.08,367.71a.37.37,0,0,0,.25-.06.34.34,0,0,0,.07-.47,10.69,10.69,0,0,0-9.8-4,.34.34,0,0,0-.28.38.33.33,0,0,0,.39.28,10,10,0,0,1,9.15,3.71A.34.34,0,0,0,182.08,367.71Z" style="fill:#407BFF"></path><path d="M184,374.34a.33.33,0,0,0,.33-.15,25.1,25.1,0,0,0,3.47-12.51.32.32,0,0,0-.32-.34.34.34,0,0,0-.34.33,24.89,24.89,0,0,1-3.37,12.15.35.35,0,0,0,.09.47Z" style="fill:#407BFF"></path></g><g id="freepik--Book--inject-228"><path d="M115.32,288.56l1.53,17.53a3.64,3.64,0,0,0,3.55,3.26H227l-1.82-20.79Z" style="fill:#407BFF"></path><path d="M115.32,288.56l1.53,17.53a3.64,3.64,0,0,0,3.55,3.26H227l-1.82-20.79Z" style="opacity:0.2"></path><path d="M226.67,305.39H118.44a1.83,1.83,0,0,1-1.79-1.65L105.24,173.41a1.49,1.49,0,0,1,1.51-1.65H215Z" style="fill:#407BFF"></path><path d="M226.67,305.39H118.44a1.83,1.83,0,0,1-1.79-1.65L105.24,173.41a1.49,1.49,0,0,1,1.51-1.65H215Z" style="fill:#fff;opacity:0.2"></path><path d="M131.5,302.42H120.66a1.29,1.29,0,0,1-1.26-1.16l-1-10.84a3.3,3.3,0,0,0-3.23-3h0l1.29,14.68a3.62,3.62,0,0,0,3.54,3.26h14.68A3.3,3.3,0,0,0,131.5,302.42Z" style="fill:#263238"></path><path d="M105.39,175l1.28,14.68h0a2.68,2.68,0,0,0,2.71-3l-.95-10.84a1,1,0,0,1,1.06-1.16h10.84a2.68,2.68,0,0,0,2.71-3H108.36A2.94,2.94,0,0,0,105.39,175Z" style="fill:#263238"></path><g style="opacity:0.5"><path d="M131.5,302.42H120.66a1.29,1.29,0,0,1-1.26-1.16l-1-10.84a3.3,3.3,0,0,0-3.23-3h0l1.29,14.68a3.62,3.62,0,0,0,3.54,3.26h14.68A3.3,3.3,0,0,0,131.5,302.42Z" style="fill:#fff"></path><path d="M105.39,175l1.28,14.68h0a2.68,2.68,0,0,0,2.71-3l-.95-10.84a1,1,0,0,1,1.06-1.16h10.84a2.68,2.68,0,0,0,2.71-3H108.36A2.94,2.94,0,0,0,105.39,175Z" style="fill:#fff"></path></g><polygon points="119.15 284.11 120.51 299.64 226.16 299.64 224.8 284.11 119.15 284.11" style="fill:#407BFF"></polygon><polygon points="119.15 284.11 120.51 299.64 226.16 299.64 224.8 284.11 119.15 284.11" style="fill:#fff;opacity:0.5"></polygon><path d="M215,171.76c-33.82-13.52-71.71-14.59-105.65,0l11.19,127.88c33.94-14.59,71.83-13.52,105.65,0Z" style="fill:#407BFF"></path><path d="M215,171.76c-33.82-13.52-71.71-14.59-105.65,0l11.19,127.88c33.94-14.59,71.83-13.52,105.65,0Z" style="fill:#fff;opacity:0.8"></path><g style="opacity:0.2"><path d="M123.83,281.8h0a1.49,1.49,0,0,1,.77-2.06,132.56,132.56,0,0,1,40.34-8.06,1.79,1.79,0,0,1,1.8,1.55h0a1.43,1.43,0,0,1-1.37,1.62,129.21,129.21,0,0,0-39.45,7.88A1.7,1.7,0,0,1,123.83,281.8Z"></path><path d="M217.79,282.72a142.68,142.68,0,0,0-42.67-7.94,1.75,1.75,0,0,1-1.67-1.59h0a1.45,1.45,0,0,1,1.5-1.57,146.25,146.25,0,0,1,43.64,8.12,1.75,1.75,0,0,1,1.13,2.06h0A1.45,1.45,0,0,1,217.79,282.72Z"></path><path d="M122.43,265.81h0a1.48,1.48,0,0,1,.77-2.06A132.39,132.39,0,0,1,148,257.26a1.78,1.78,0,0,1,1.94,1.35h0a1.43,1.43,0,0,1-1.16,1.78,128.2,128.2,0,0,0-24.27,6.35A1.7,1.7,0,0,1,122.43,265.81Z"></path><path d="M191,260.39a137.63,137.63,0,0,0-32.7-1.17,1.75,1.75,0,0,1-1.83-1.41h0a1.44,1.44,0,0,1,1.3-1.74,140.08,140.08,0,0,1,33.43,1.19,1.79,1.79,0,0,1,1.49,1.85h0A1.42,1.42,0,0,1,191,260.39Z"></path><path d="M216.39,266.73a149.75,149.75,0,0,0-15.84-4.52,1.75,1.75,0,0,1-1.36-1.87h0a1.46,1.46,0,0,1,1.8-1.22,151.19,151.19,0,0,1,16.2,4.63,1.73,1.73,0,0,1,1.13,2.05h0A1.44,1.44,0,0,1,216.39,266.73Z"></path><path d="M121,249.83h0a1.49,1.49,0,0,1,.77-2.06,133.15,133.15,0,0,1,53.63-8,1.79,1.79,0,0,1,1.65,1.7h0a1.42,1.42,0,0,1-1.53,1.46,130.3,130.3,0,0,0-52.43,7.81A1.69,1.69,0,0,1,121,249.83Z"></path><path d="M215,250.75A145,145,0,0,0,186.67,244a1.74,1.74,0,0,1-1.51-1.75h0a1.45,1.45,0,0,1,1.67-1.39,149.36,149.36,0,0,1,29,6.92,1.74,1.74,0,0,1,1.13,2.06h0A1.45,1.45,0,0,1,215,250.75Z"></path><path d="M119.63,233.84h0a1.49,1.49,0,0,1,.78-2.06,132,132,0,0,1,34.87-7.71,1.79,1.79,0,0,1,1.85,1.48h0a1.44,1.44,0,0,1-1.3,1.68,129,129,0,0,0-34.11,7.54A1.7,1.7,0,0,1,119.63,233.84Z"></path><path d="M213.6,234.76a143,143,0,0,0-47.17-8,1.74,1.74,0,0,1-1.71-1.54h0a1.44,1.44,0,0,1,1.44-1.62,144.14,144.14,0,0,1,48.24,8.18,1.74,1.74,0,0,1,1.13,2.06h0A1.43,1.43,0,0,1,213.6,234.76Z"></path><path d="M118.23,217.86h0a1.49,1.49,0,0,1,.77-2.06,132.35,132.35,0,0,1,19-5.42,1.75,1.75,0,0,1,2,1.27h0a1.42,1.42,0,0,1-1.07,1.83,127.48,127.48,0,0,0-18.54,5.31A1.72,1.72,0,0,1,118.23,217.86Z"></path><path d="M145.75,210.66h0a1.46,1.46,0,0,1,1.2-1.82,138.77,138.77,0,0,1,33.85-.36,1.78,1.78,0,0,1,1.56,1.79h0a1.41,1.41,0,0,1-1.62,1.36,135.23,135.23,0,0,0-33.11.35A1.73,1.73,0,0,1,145.75,210.66Z"></path><path d="M212.2,218.78a145.05,145.05,0,0,0-23.37-6,1.74,1.74,0,0,1-1.45-1.8h0a1.45,1.45,0,0,1,1.72-1.32,150.31,150.31,0,0,1,23.9,6.14,1.76,1.76,0,0,1,1.13,2.06h0A1.44,1.44,0,0,1,212.2,218.78Z"></path><path d="M116.84,201.88h0a1.48,1.48,0,0,1,.77-2.06,132,132,0,0,1,39.67-8,1.77,1.77,0,0,1,1.8,1.54h0a1.41,1.41,0,0,1-1.36,1.62,129.41,129.41,0,0,0-38.79,7.85A1.69,1.69,0,0,1,116.84,201.88Z"></path><path d="M210.8,202.79a142.89,142.89,0,0,0-43.24-7.95,1.76,1.76,0,0,1-1.68-1.59h0a1.45,1.45,0,0,1,1.49-1.58,146,146,0,0,1,44.23,8.14,1.75,1.75,0,0,1,1.13,2.05h0A1.44,1.44,0,0,1,210.8,202.79Z"></path><path d="M115.44,185.89h0a1.48,1.48,0,0,1,.77-2.06,131.66,131.66,0,0,1,26.16-6.7,1.77,1.77,0,0,1,1.93,1.37h0a1.43,1.43,0,0,1-1.18,1.76,128.19,128.19,0,0,0-25.59,6.56A1.7,1.7,0,0,1,115.44,185.89Z"></path><path d="M183.4,180.38a136.78,136.78,0,0,0-30.54-1.2,1.74,1.74,0,0,1-1.81-1.43h0a1.45,1.45,0,0,1,1.31-1.73,140.56,140.56,0,0,1,31.23,1.22,1.78,1.78,0,0,1,1.49,1.84h0A1.42,1.42,0,0,1,183.4,180.38Z"></path><path d="M209.4,186.81a146.35,146.35,0,0,0-17.7-4.93,1.74,1.74,0,0,1-1.38-1.85h0a1.46,1.46,0,0,1,1.79-1.25,151,151,0,0,1,18.09,5.05,1.74,1.74,0,0,1,1.13,2h0A1.45,1.45,0,0,1,209.4,186.81Z"></path></g><path d="M335.07,288.56l1.53,17.53a2.94,2.94,0,0,1-3,3.26H227l-1.82-20.79Z" style="fill:#407BFF"></path><path d="M335.07,288.56l1.53,17.53a2.94,2.94,0,0,1-3,3.26H227l-1.82-20.79Z" style="opacity:0.2"></path><path d="M226.67,305.39H334.89a1.49,1.49,0,0,0,1.51-1.65L325,173.41a1.83,1.83,0,0,0-1.79-1.65H215Z" style="fill:#407BFF"></path><path d="M226.67,305.39H334.89a1.49,1.49,0,0,0,1.51-1.65L325,173.41a1.83,1.83,0,0,0-1.79-1.65H215Z" style="fill:#fff;opacity:0.2"></path><path d="M321.31,302.42h10.84a1,1,0,0,0,1.06-1.16l-.95-10.84a2.68,2.68,0,0,1,2.71-3h0l1.28,14.68a2.94,2.94,0,0,1-3,3.26H318.6A2.68,2.68,0,0,1,321.31,302.42Z" style="fill:#263238"></path><path d="M325.13,175l1.29,14.68h0a3.3,3.3,0,0,1-3.23-3l-.95-10.84a1.29,1.29,0,0,0-1.26-1.16H310.14a3.3,3.3,0,0,1-3.23-3h14.68A3.62,3.62,0,0,1,325.13,175Z" style="fill:#263238"></path><g style="opacity:0.5"><path d="M321.31,302.42h10.84a1,1,0,0,0,1.06-1.16l-.95-10.84a2.68,2.68,0,0,1,2.71-3h0l1.28,14.68a2.94,2.94,0,0,1-3,3.26H318.6A2.68,2.68,0,0,1,321.31,302.42Z" style="fill:#fff"></path><path d="M325.13,175l1.29,14.68h0a3.3,3.3,0,0,1-3.23-3l-.95-10.84a1.29,1.29,0,0,0-1.26-1.16H310.14a3.3,3.3,0,0,1-3.23-3h14.68A3.62,3.62,0,0,1,325.13,175Z" style="fill:#fff"></path></g><polygon points="330.46 284.11 331.82 299.64 226.16 299.64 224.8 284.11 330.46 284.11" style="fill:#407BFF"></polygon><polygon points="330.46 284.11 331.82 299.64 226.16 299.64 224.8 284.11 330.46 284.11" style="fill:#fff;opacity:0.4"></polygon><path d="M215,171.76c31.46-13.52,69.16-14.59,105.66,0l11.19,127.88c-36.5-14.59-74.2-13.52-105.66,0Z" style="fill:#407BFF"></path><path d="M215,171.76c31.46-13.52,69.16-14.59,105.66,0l11.19,127.88c-36.5-14.59-74.2-13.52-105.66,0Z" style="fill:#fff;opacity:0.7000000000000001"></path><g style="opacity:0.2"><path d="M325.37,281.8h0a1.74,1.74,0,0,0-1.13-2.06,146.24,146.24,0,0,0-41.75-8.06,1.45,1.45,0,0,0-1.52,1.55h0a1.75,1.75,0,0,0,1.65,1.62,142.63,142.63,0,0,1,40.83,7.88A1.44,1.44,0,0,0,325.37,281.8Z"></path><path d="M231.57,282.72a129.76,129.76,0,0,1,41.28-7.94,1.42,1.42,0,0,0,1.39-1.59h0a1.78,1.78,0,0,0-1.77-1.57,133,133,0,0,0-42.22,8.12,1.49,1.49,0,0,0-.77,2.06h0A1.71,1.71,0,0,0,231.57,282.72Z"></path><path d="M324,265.81h0a1.76,1.76,0,0,0-1.13-2.06,150.2,150.2,0,0,0-26-6.49,1.45,1.45,0,0,0-1.7,1.35h0a1.74,1.74,0,0,0,1.47,1.78,145.69,145.69,0,0,1,25.38,6.35A1.45,1.45,0,0,0,324,265.81Z"></path><path d="M254.44,260.39a135.09,135.09,0,0,1,32.5-1.17,1.41,1.41,0,0,0,1.57-1.41h0a1.77,1.77,0,0,0-1.6-1.74,137.48,137.48,0,0,0-33.22,1.19,1.45,1.45,0,0,0-1.16,1.85h0A1.72,1.72,0,0,0,254.44,260.39Z"></path><path d="M230.17,266.73a129.89,129.89,0,0,1,15.06-4.52,1.43,1.43,0,0,0,1-1.87h0a1.75,1.75,0,0,0-2-1.22,131.73,131.73,0,0,0-15.39,4.63,1.48,1.48,0,0,0-.77,2.05h0A1.69,1.69,0,0,0,230.17,266.73Z"></path><path d="M322.58,249.83h0a1.76,1.76,0,0,0-1.13-2.06,143.45,143.45,0,0,0-55-8,1.45,1.45,0,0,0-1.35,1.7h0a1.74,1.74,0,0,0,1.79,1.46,140.37,140.37,0,0,1,53.79,7.81A1.44,1.44,0,0,0,322.58,249.83Z"></path><path d="M228.78,250.75A128.55,128.55,0,0,1,255.92,244a1.42,1.42,0,0,0,1.2-1.75h0a1.78,1.78,0,0,0-1.91-1.39,132.34,132.34,0,0,0-27.75,6.92,1.48,1.48,0,0,0-.77,2.06h0A1.7,1.7,0,0,0,228.78,250.75Z"></path><path d="M321.18,233.84h0a1.76,1.76,0,0,0-1.13-2.06,147.25,147.25,0,0,0-36.23-7.71,1.45,1.45,0,0,0-1.59,1.48h0a1.77,1.77,0,0,0,1.59,1.68,143.62,143.62,0,0,1,35.43,7.54A1.45,1.45,0,0,0,321.18,233.84Z"></path><path d="M227.38,234.76a131,131,0,0,1,45.76-8,1.41,1.41,0,0,0,1.45-1.54h0a1.77,1.77,0,0,0-1.72-1.62,132.15,132.15,0,0,0-46.81,8.18,1.48,1.48,0,0,0-.77,2.06h0A1.69,1.69,0,0,0,227.38,234.76Z"></path><path d="M319.78,217.86h0a1.74,1.74,0,0,0-1.13-2.06,151.26,151.26,0,0,0-19.9-5.42,1.45,1.45,0,0,0-1.77,1.27h0a1.74,1.74,0,0,0,1.4,1.83,145.92,145.92,0,0,1,19.47,5.31A1.45,1.45,0,0,0,319.78,217.86Z"></path><path d="M291,210.66h0a1.79,1.79,0,0,0-1.53-1.82,139.51,139.51,0,0,0-33.91-.36,1.45,1.45,0,0,0-1.24,1.79h0a1.73,1.73,0,0,0,1.85,1.36,136,136,0,0,1,33.17.35A1.42,1.42,0,0,0,291,210.66Z"></path><path d="M226,218.78a127.36,127.36,0,0,1,22.32-6,1.43,1.43,0,0,0,1.13-1.8h0a1.77,1.77,0,0,0-2-1.32,132.09,132.09,0,0,0-22.81,6.14,1.48,1.48,0,0,0-.77,2.06h0A1.7,1.7,0,0,0,226,218.78Z"></path><path d="M318.38,201.88h0a1.74,1.74,0,0,0-1.13-2.06,145.87,145.87,0,0,0-41.08-8,1.44,1.44,0,0,0-1.53,1.54h0a1.75,1.75,0,0,0,1.64,1.62,143,143,0,0,1,40.17,7.85A1.44,1.44,0,0,0,318.38,201.88Z"></path><path d="M224.58,202.79a130.06,130.06,0,0,1,41.85-7.95,1.42,1.42,0,0,0,1.4-1.59h0a1.79,1.79,0,0,0-1.77-1.58,132.82,132.82,0,0,0-42.8,8.14,1.48,1.48,0,0,0-.77,2.05h0A1.69,1.69,0,0,0,224.58,202.79Z"></path><path d="M317,185.89h0a1.74,1.74,0,0,0-1.13-2.06,148.73,148.73,0,0,0-27.33-6.7,1.44,1.44,0,0,0-1.69,1.37h0a1.75,1.75,0,0,0,1.49,1.76,145.16,145.16,0,0,1,26.74,6.56A1.44,1.44,0,0,0,317,185.89Z"></path><path d="M248.06,180.38a134,134,0,0,1,30.33-1.2,1.42,1.42,0,0,0,1.56-1.43h0a1.77,1.77,0,0,0-1.62-1.73,137.65,137.65,0,0,0-31,1.22,1.45,1.45,0,0,0-1.17,1.84h0A1.73,1.73,0,0,0,248.06,180.38Z"></path><path d="M223.18,186.81A127.6,127.6,0,0,1,240,181.88a1.43,1.43,0,0,0,1-1.85h0a1.76,1.76,0,0,0-2-1.25,131.74,131.74,0,0,0-17.21,5.05,1.48,1.48,0,0,0-.77,2h0A1.69,1.69,0,0,0,223.18,186.81Z"></path></g></g><g id="freepik--Character--inject-228"><polygon points="282.36 264.68 276.37 272.51 272.65 268.08 279.17 261.6 282.36 264.68" style="fill:#7f3e3b"></polygon><path d="M247.48,265.36c-1.41-4.26-3.39-15.2.6-19.39s7.11,5.09,9.28,12.29,3.8,17,7.37,14.9,9.27-7.5,9.27-7.5l4.71,5.48s-12.09,17.41-18.18,13.78S249.27,270.77,247.48,265.36Z" style="fill:#407BFF"></path><path d="M272.47,267.06l4.87,5.95c.86-1.14,1.37-1.87,1.37-1.87L274,265.66S273.4,266.23,272.47,267.06Z" style="fill:#fff;opacity:0.7000000000000001"></path><path d="M250.71,272.82a41.55,41.55,0,0,0,6.48,9.39,184.55,184.55,0,0,0,0-20.62L252.8,260l-1.72,1.07Z" style="opacity:0.2"></path><polygon points="300.99 384.53 305.29 404.52 312.01 402.21 311.22 383.3 300.99 384.53" style="fill:#7f3e3b"></polygon><path d="M238.06,300.61a67.25,67.25,0,0,0,18.83-2.45l6.53,13.26S303,304.31,308,316.51c4.3,10.4,4.48,74.53,4.48,74.53l-11,1.35s-12.07-46.71-12-62.17a1.45,1.45,0,0,0-2.33-1.18c-6.1,4.74-22.28,15-46.77,13.39-3.8-.25-8.23-1.07-7.1-13.45S238.06,300.61,238.06,300.61Z" style="fill:#263238"></path><path d="M260,335.82c10.86-4.82,25.92-18,32.88-22.88a15.3,15.3,0,0,1,5.42-2.51c-6-1.3-13.78-1.23-20.43-.75l-15.8,7L236.7,328l-3.13,9c1.09,4.82,4.12,5.32,6.84,5.5a72.71,72.71,0,0,0,28.5-3.7C267.65,338.84,249.51,340.47,260,335.82Z" style="opacity:0.2"></path><polygon points="335.67 347.9 349.25 361.63 354.51 357.47 344.05 341.73 335.67 347.9" style="fill:#7f3e3b"></polygon><path d="M353.54,355.59l-6.12,4.69a.71.71,0,0,0-.21.86l3.1,6.69a1.19,1.19,0,0,0,1.57.59,1,1,0,0,0,.22-.13c2.5-2,4.65-3.84,7.81-6.25,3.72-2.85,3.12-1.68,7.54-5,2.67-2,.86-5.35-.37-4.64-5.62,3.27-8.25,2.83-11.62,2.51A2.85,2.85,0,0,0,353.54,355.59Z" style="fill:#263238"></path><path d="M247.63,299.82c-16.77,2.77-26.75.16-26.75.16s-11.95,43,14.42,42.78c11.68-.08,16.53-4.67,24.12-9.12,17.29-10.15,31.55-25.17,38.23-24.2,9.61,1.4,4.17,12.8,43.34,44.7l8.13-7.15s-33.86-60.78-51.63-60.66c-17.12.12-44.68,21.63-48.29,21.66S247.63,299.82,247.63,299.82Z" style="fill:#263238"></path><path d="M303,311.91h0a9.16,9.16,0,0,1,5.05,4.59,28.3,28.3,0,0,1,1.35,5.71c1.11,1.6,2.42,3.38,4,5.34C312.34,314.68,303,311.91,303,311.91Z" style="opacity:0.2"></path><path d="M311.9,400.41l-7.69.46a.7.7,0,0,0-.66.59l-1.18,7.29a1.19,1.19,0,0,0,1,1.36,1,1,0,0,0,.25,0c3.18-.24,6-.59,10-.82,4.68-.27,3.52.36,9,.11,3.32-.15,3.7-4,2.29-4.06-6.48-.43-8.41-2.27-11-4.42A2.87,2.87,0,0,0,311.9,400.41Z" style="fill:#263238"></path><path d="M220.52,301s23,4.37,38.24.56c0,0-4-5.95-3.6-17.31.4-11.12,6.31-24.11-3.66-38.38a2.16,2.16,0,0,0-1.76-.89c-5.9,0-33.45.25-34.27,5C214.42,256,225.23,269.9,220.52,301Z" style="fill:#407BFF"></path><path d="M224.62,271.61A101.72,101.72,0,0,0,219,251.93l-.55,4.26L217,258c2.26,7.28,5.88,18.7,4.26,36.49,6.07-1.26,13.87-10,13.87-10l-2.84-7.66C228.28,278.58,225.61,277.38,224.62,271.61Z" style="opacity:0.2"></path><polygon points="245.58 273.93 238.45 280.74 235.46 275.78 242.91 270.39 245.58 273.93" style="fill:#7f3e3b"></polygon><path d="M211.15,268.87c-.73-4.43-1-15.54,3.6-19.07s6.23,6.13,7.27,13.58,1.11,17.41,5,15.86,10.32-6,10.32-6l3.81,6.14s-14.64,15.34-20.1,10.81S212.08,274.49,211.15,268.87Z" style="fill:#407BFF"></path><path d="M235.67,274.35l3.88,6.61c1-.94,1.57-1.56,1.57-1.56l-3.81-6.14S236.67,273.7,235.67,274.35Z" style="fill:#fff;opacity:0.7000000000000001"></path><path d="M185.77,404.24V376.85c-3.38,0-3.38-5.25,0-5.25,10.44,0,20.88-.07,31.33-.13v38H185.77C182.39,409.49,182.39,404.24,185.77,404.24Z" style="fill:#407BFF"></path><path d="M185.77,404.24V376.85c-3.38,0-3.38-5.25,0-5.25,10.44,0,20.88-.07,31.33-.13v38H185.77C182.39,409.49,182.39,404.24,185.77,404.24Z" style="fill:#fff;opacity:0.2"></path><rect x="185.77" y="376.85" width="24.34" height="27.35" style="fill:#407BFF"></rect><rect x="185.77" y="376.85" width="24.34" height="27.35" style="fill:#fff;opacity:0.7000000000000001"></rect><path d="M205,406.86h84.38c5.8,0,10.5-7.3,10.5-16.31s-4.7-16.32-10.5-16.32H205Z" style="fill:#407BFF"></path><path d="M205,406.86h84.38c5.8,0,10.5-7.3,10.5-16.31s-4.7-16.32-10.5-16.32H205Z" style="fill:#fff;opacity:0.9"></path><path d="M205,371.6c27.63,0,55.3-.49,82.92,0,18.92.35,19.93,36.61,1.38,37.89-12.94.88-26.25,0-39.21,0H205c-3.37,0-3.38-5.25,0-5.25h78.55c6.06,0,10.39-.07,12.74-7.22,2-6.18,1.39-18.8-6.91-20.17a18,18,0,0,0-2.84,0H205c-3.37,0-3.38-5.25,0-5.25Z" style="fill:#407BFF"></path><path d="M205,371.6c27.63,0,55.3-.49,82.92,0,18.92.35,19.93,36.61,1.38,37.89-12.94.88-26.25,0-39.21,0H205c-3.37,0-3.38-5.25,0-5.25h78.55c6.06,0,10.39-.07,12.74-7.22,2-6.18,1.39-18.8-6.91-20.17a18,18,0,0,0-2.84,0H205c-3.37,0-3.38-5.25,0-5.25Z" style="opacity:0.3"></path><path d="M277.59,390.48s8.65,3.93,8.77,21.35l-3.43-2.51-3.46,2.53c-.1-17.44-8.76-21.37-8.76-21.37Z" style="fill:#407BFF"></path><path d="M285.06,367.21V346c2.61,0,2.62-4.07,0-4.07-8.09,0-16.17-.05-24.26-.1v29.44h24.26C287.67,371.27,287.68,367.21,285.06,367.21Z" style="fill:#407BFF"></path><path d="M285.06,367.21V346c2.61,0,2.62-4.07,0-4.07-8.09,0-16.17-.05-24.26-.1v29.44h24.26C287.67,371.27,287.68,367.21,285.06,367.21Z" style="fill:#fff;opacity:0.30000000000000004"></path><rect x="266.21" y="346" width="18.85" height="21.18" style="fill:#407BFF"></rect><rect x="266.21" y="346" width="18.85" height="21.18" style="fill:#fff;opacity:0.7000000000000001"></rect><path d="M270.17,369.24H204.82c-4.49,0-8.13-5.66-8.13-12.64S200.33,344,204.82,344h65.35Z" style="fill:#407BFF"></path><path d="M270.17,369.24H204.82c-4.49,0-8.13-5.66-8.13-12.64S200.33,344,204.82,344h65.35Z" style="fill:#fff;opacity:0.9"></path><path d="M270.17,341.93c-21.4,0-42.82-.38-64.21,0-14.65.27-15.44,28.35-1.07,29.34,10,.69,20.32,0,30.36,0h34.92c2.61,0,2.61-4.06,0-4.06H209.34c-4.69,0-8.05-.06-9.86-5.59-1.57-4.79-1.08-14.57,5.34-15.62a13.59,13.59,0,0,1,2.21,0h63.14c2.61,0,2.61-4.07,0-4.07Z" style="fill:#407BFF"></path><path d="M213.52,353.14s-7.34,3.33-7.44,18.11l2.9-2.13,2.94,2.15c.09-14.8,7.44-18.13,7.44-18.13Z" style="fill:#407BFF"></path><path d="M213.52,353.14s-7.34,3.33-7.44,18.11l2.9-2.13,2.94,2.15c.09-14.8,7.44-18.13,7.44-18.13Z" style="fill:#fff;opacity:0.5"></path><path d="M242.35,221h-1c0-3.07,1-4.43,3.11-4.43v1C243.6,217.58,242.35,217.58,242.35,221Z" style="fill:#407BFF"></path><path d="M249.64,225.83c0,3.48-.85,6.29-4.51,6.29s-4.51-2.81-4.51-6.29.84-6.28,4.51-6.28S249.64,222.36,249.64,225.83Z" style="fill:#407BFF"></path><path d="M249.64,225.83c0,3.48-.85,6.29-4.51,6.29s-4.51-2.81-4.51-6.29.84-6.28,4.51-6.28S249.64,222.36,249.64,225.83Z" style="opacity:0.2"></path><path d="M248.05,225.83c0,3.48-.84,6.29-4.51,6.29s-4.51-2.81-4.51-6.29.85-6.28,4.51-6.28S248.05,222.36,248.05,225.83Z" style="fill:#407BFF"></path><path d="M243.54,220.59c-1.8,0-3.47.63-3.47,5.24s1.67,5.25,3.47,5.25,3.48-.63,3.48-5.25S245.35,220.59,243.54,220.59Z" style="opacity:0.6000000000000001"></path><path d="M246.46,220.06h1c-.19-2.42-1.15-3.51-3.07-3.51v1C245.17,217.58,246.25,217.59,246.46,220.06Z" style="fill:#407BFF"></path><path d="M251.82,203.81s-.23-6.31-4.66-3.14c0,0-2.57-6.5-6.71-.8,0,0-6.31-1.48-4,5,0,0-5.22,3.59.76,6.11,0,0,1.3,5.61,5.75,1.45,0,0,2.45,3.89,5.62-.2,0,0,4.49.74,3.25-4C251.81,208.26,254.71,205.8,251.82,203.81Z" style="fill:#263238"></path><path d="M240,207.77a4.1,4.1,0,0,1,3.68-.51c1.89.78,1.28,4.15,1.28,4.15Z" style="fill:#407BFF"></path><path d="M227.38,235s3,8.88.68,12.69c0,0,8.55.43,10.63-2.36,0,0-1.21-.66-1.59-4S233.46,234.36,227.38,235Z" style="fill:#7f3e3b"></path><path d="M237.1,241.27c-.35-3.14-3.18-6.38-8.44-6.35l-.35.32-.38.67s3.23,8.67,9.7,7.75A10.64,10.64,0,0,1,237.1,241.27Z" style="isolation:isolate;opacity:0.2"></path><path d="M224.16,223.19c1,8.17,1.27,11.65,5.68,15.6,6.62,5.94,16.43,2.91,17.88-5.4,1.31-7.48-.57-19.58-8.8-22.35a11.24,11.24,0,0,0-14.26,7A11.37,11.37,0,0,0,224.16,223.19Z" style="fill:#7f3e3b"></path><path d="M242.23,228a17.88,17.88,0,0,0,2.65,4.12,2.93,2.93,0,0,1-2.35.6Z" style="fill:#630f0f"></path><path d="M235,223.74a.33.33,0,0,1-.16-.07.32.32,0,0,1-.05-.45h0A3.82,3.82,0,0,1,238,221.7a.35.35,0,0,1,.29.36.32.32,0,0,1-.35.29,3.23,3.23,0,0,0-2.62,1.27A.32.32,0,0,1,235,223.74Z" style="fill:#2e353a"></path><path d="M247.15,222.44a.33.33,0,0,1-.16-.07,3.18,3.18,0,0,0-2.84-.56.33.33,0,0,1-.42-.19h0a.33.33,0,0,1,.2-.42,3.87,3.87,0,0,1,3.46.66.32.32,0,0,1,.08.46.33.33,0,0,1-.32.13Z" style="fill:#2e353a"></path><path d="M237.45,227.19c0,.66.42,1.18.87,1.16s.75-.59.7-1.26-.43-1.18-.86-1.16S237.41,226.52,237.45,227.19Z" style="fill:#2e353a"></path><path d="M245,226.72c0,.66.43,1.18.86,1.16s.75-.59.71-1.26-.42-1.18-.86-1.16S245,226,245,226.72Z" style="fill:#2e353a"></path><path d="M245.52,225.51l1.58-.56S246.35,226.25,245.52,225.51Z" style="fill:#2e353a"></path><path d="M238,226l1.58-.56S238.8,226.72,238,226Z" style="fill:#2e353a"></path><path d="M238.27,233.88a4.36,4.36,0,0,1-.48-.65.16.16,0,0,1,0-.22h0a.16.16,0,0,1,.22.06,4.32,4.32,0,0,0,3.3,2.08.16.16,0,0,1,0,.32A4.42,4.42,0,0,1,238.27,233.88Z" style="fill:#263238"></path><path d="M222.63,229.79a6,6,0,0,0,3.11,3.38c1.93.87,3.21-.77,2.94-2.76-.24-1.78-1.53-4.38-3.59-4.41a2.72,2.72,0,0,0-2.69,2.75A2.67,2.67,0,0,0,222.63,229.79Z" style="fill:#7f3e3b"></path><path d="M231.8,209.11s-11.3-1-16.88,7.93S227.38,235,227.38,235l4.42-13.33s3.7-1.08,4.28-4.5c0,0,.85,1.23-.58,3.42,0,0,9.4.54,9-4.34a3,3,0,0,1,0,2.63s2.93,0,2.61-2.57S244.73,203,231.8,209.11Z" style="fill:#263238"></path><path d="M215.28,217.23s3.06.62,3.06,3.29-3.91,2.89-3.91,2.89Z" style="fill:#407BFF"></path><path d="M216.25,218.27s-.23-6.31-4.66-3.13c0,0-2.57-6.51-6.71-.81,0,0-6.31-1.48-4,5,0,0-5.22,3.59.76,6.11,0,0,1.3,5.61,5.75,1.45,0,0,2.45,3.89,5.62-.2,0,0,4.49.74,3.25-3.95C216.24,222.72,219.14,220.27,216.25,218.27Z" style="fill:#263238"></path><path d="M247.1,216.29c0-.27-.09-.64-.17-1.06-1.73-3.34-5.29-6.77-12.61-5.69-13.4,2-11.92,14.2-11.92,14.2h5s-1.68-10.43,8.13-12.78c6.58-1.58,10,2.3,11.6,5.63C247.11,216.49,247.11,216.39,247.1,216.29Z" style="fill:#407BFF"></path><path d="M247.1,216.29c0-.27-.09-.64-.17-1.06-1.73-3.34-5.29-6.77-12.61-5.69-13.4,2-11.92,14.2-11.92,14.2h5s-1.68-10.43,8.13-12.78c6.58-1.58,10,2.3,11.6,5.63C247.11,216.49,247.11,216.39,247.1,216.29Z" style="opacity:0.2"></path><path d="M222.66,224.33h-1c0-3.06,1-4.43,3.11-4.43v1C223.91,220.93,222.66,220.93,222.66,224.33Z" style="fill:#407BFF"></path><ellipse cx="225.44" cy="229.19" rx="4.51" ry="6.28" style="fill:#407BFF"></ellipse><ellipse cx="225.44" cy="229.19" rx="4.51" ry="6.28" style="opacity:0.2"></ellipse><ellipse cx="223.85" cy="229.19" rx="4.51" ry="6.28" style="fill:#407BFF"></ellipse><path d="M223.85,223.94c-1.8,0-3.47.63-3.47,5.25s1.67,5.24,3.47,5.24,3.48-.63,3.48-5.24S225.66,223.94,223.85,223.94Z" style="fill:#fff;opacity:0.5"></path><path d="M226.77,223.41h1c-.19-2.41-1.15-3.51-3.07-3.51v1C225.48,220.93,226.56,220.94,226.77,223.41Z" style="fill:#407BFF"></path><path d="M236.08,250.67c7.91-1.11,4.16-4.41,2.65-5.51-3.49.15-7.29.38-10.8.76C227.93,245.93,226.54,252,236.08,250.67Z" style="fill:#7f3e3b"></path><path d="M281.2,255.81l-1.66,1.05a2.32,2.32,0,0,0-1.06,1.81l-.18,3.46a4.29,4.29,0,0,0,1.61,3.57l.67.53c2.87-1.57,4.83-5.37,4.83-5.37l.67-1a1.9,1.9,0,0,0-.47-2.67l-2-1.37A2.2,2.2,0,0,0,281.2,255.81Z" style="fill:#7f3e3b"></path><path d="M251.57,275.43h-5a1.45,1.45,0,0,1-1.46-1.86l2.76-13a2.42,2.42,0,0,1,2.25-1.86h5a1.45,1.45,0,0,1,1.46,1.86l-2.76,13A2.42,2.42,0,0,1,251.57,275.43Z" style="fill:#407BFF"></path><path d="M251.57,275.43h-5a1.45,1.45,0,0,1-1.46-1.86l2.76-13a2.42,2.42,0,0,1,2.25-1.86h5a1.45,1.45,0,0,1,1.46,1.86l-2.76,13A2.42,2.42,0,0,1,251.57,275.43Z" style="fill:#fff;opacity:0.30000000000000004"></path><path d="M252.3,275.43h-5a1.45,1.45,0,0,1-1.46-1.86l2.76-13a2.42,2.42,0,0,1,2.25-1.86h5a1.46,1.46,0,0,1,1.47,1.86l-2.77,13A2.42,2.42,0,0,1,252.3,275.43Z" style="fill:#407BFF"></path><path d="M252.3,275.43h-5a1.45,1.45,0,0,1-1.46-1.86l2.76-13a2.42,2.42,0,0,1,2.25-1.86h5a1.46,1.46,0,0,1,1.47,1.86l-2.77,13A2.42,2.42,0,0,1,252.3,275.43Z" style="fill:#fff;opacity:0.7000000000000001"></path><path d="M250.32,262.55h.48a1.61,1.61,0,0,0,1.51-1.24l.11-.49a1,1,0,0,0-1-1.24H251a1.64,1.64,0,0,0-1.51,1.24l-.1.49A1,1,0,0,0,250.32,262.55Z" style="fill:#407BFF"></path><path d="M251.52,260.32a.67.67,0,0,1-.63.52.41.41,0,0,1-.4-.52.67.67,0,0,1,.62-.51A.4.4,0,0,1,251.52,260.32Z" style="fill:#263238"></path><path d="M251.2,261.81a.68.68,0,0,1-.62.52.41.41,0,0,1-.41-.52.67.67,0,0,1,.63-.52A.41.41,0,0,1,251.2,261.81Z" style="fill:#263238"></path><path d="M251.61,271.55l-1.06,1.66a2.28,2.28,0,0,1-1.81,1.06l-3.45.18a4.29,4.29,0,0,1-3.57-1.61l-.53-.67c1.56-2.87,5.37-4.83,5.37-4.83l1-.67a1.91,1.91,0,0,1,2.67.48l1.36,2A2.18,2.18,0,0,1,251.61,271.55Z" style="fill:#7f3e3b"></path><path d="M194,358.24c-2,0-9.14-.27-13-3.93a7.73,7.73,0,0,1-2.47-5.72c-.09-6,4.83-6.77,11.64-7.85,5.72-.91,12.84-2,20.82-6.22,7.13-3.75,11.51-22.18,12.66-53.32.88-23.68-.45-46.5-.47-46.73l1.29-.07c.22,3.74,5.25,91.74-12.88,101.25-8.17,4.29-15.71,5.49-21.22,6.36-7.37,1.17-10.63,1.89-10.56,6.56a6.57,6.57,0,0,0,2.07,4.81c4,3.82,12.51,3.57,12.6,3.56l0,1.29Z" style="fill:#407BFF"></path><path d="M223.26,235.28c.22,4.25,1.21,24.73.42,45.92-1.15,31.14-5.53,49.57-12.66,53.32-8,4.18-15.1,5.31-20.82,6.22-6.81,1.08-11.73,1.86-11.64,7.85a7.73,7.73,0,0,0,2.47,5.72c3.85,3.66,11,3.93,13,3.93h.53l0-1.29c-.09,0-8.58.26-12.6-3.56a6.57,6.57,0,0,1-2.07-4.81c-.07-4.67,3.19-5.39,10.56-6.56,5.51-.87,13-2.07,21.22-6.36,17.39-9.12,13.47-90.42,12.93-100.37Z" style="opacity:0.5"></path><path d="M194.62,356.08h-4.33a.8.8,0,0,0-.8.81v.9a.8.8,0,0,0,.8.81h4.25A21.22,21.22,0,0,1,194.62,356.08Z"></path><polygon points="260.26 257.37 261.45 252.85 264.78 256.18 260.26 257.37" style="fill:#407BFF"></polygon><circle cx="265.49" cy="251.81" r="5.31" style="fill:#407BFF"></circle><path d="M265.15,249.42l-1.55,1.38h-1.41v2h1.41l1.55,1.38a.21.21,0,0,0,.33-.19V249.6A.2.2,0,0,0,265.15,249.42Z" style="fill:#fff"></path><path d="M266.35,250.47a1.93,1.93,0,0,1,0,2.68c-.25.27.15.67.4.4a2.5,2.5,0,0,0,0-3.48c-.25-.27-.65.13-.4.4Z" style="fill:#fff"></path><path d="M267.1,249a4,4,0,0,1,0,5.57c-.25.27.15.67.4.4a4.6,4.6,0,0,0,0-6.37c-.25-.27-.65.13-.4.4Z" style="fill:#fff"></path><path d="M258.76,301.52a107.05,107.05,0,0,1-27.72.89L249.2,308l9.9-5.35Z" style="opacity:0.2"></path></g><g id="freepik--Flowers--inject-228"><path d="M333,131.46c0,2.08-1.69,10.87-3.77,10.87s-3.77-8.79-3.77-10.87a3.77,3.77,0,1,1,7.54,0Z" style="fill:#407BFF"></path><path d="M333,131.46c0,2.08-1.69,10.87-3.77,10.87s-3.77-8.79-3.77-10.87a3.77,3.77,0,1,1,7.54,0Z" style="fill:#fff;opacity:0.6000000000000001"></path><path d="M325.46,161.55c0-2.09,1.69-10.87,3.77-10.87s3.77,8.78,3.77,10.87a3.77,3.77,0,1,1-7.54,0Z" style="fill:#407BFF"></path><path d="M325.46,161.55c0-2.09,1.69-10.87,3.77-10.87s3.77,8.78,3.77,10.87a3.77,3.77,0,1,1-7.54,0Z" style="fill:#fff;opacity:0.6000000000000001"></path><path d="M344.28,150.27c-2.09,0-10.88-1.68-10.88-3.77s8.79-3.77,10.88-3.77a3.77,3.77,0,1,1,0,7.54Z" style="fill:#407BFF"></path><path d="M344.28,150.27c-2.09,0-10.88-1.68-10.88-3.77s8.79-3.77,10.88-3.77a3.77,3.77,0,1,1,0,7.54Z" style="fill:#fff;opacity:0.6000000000000001"></path><path d="M314.18,142.73c2.09,0,10.88,1.69,10.88,3.77s-8.79,3.77-10.88,3.77a3.77,3.77,0,1,1,0-7.54Z" style="fill:#407BFF"></path><path d="M314.18,142.73c2.09,0,10.88,1.69,10.88,3.77s-8.79,3.77-10.88,3.77a3.77,3.77,0,1,1,0-7.54Z" style="fill:#fff;opacity:0.6000000000000001"></path><path d="M342.54,138.53c-1.48,1.47-8.89,6.49-10.36,5s3.55-8.88,5-10.35a3.77,3.77,0,0,1,5.34,5.33Z" style="fill:#407BFF"></path><path d="M342.54,138.53c-1.48,1.47-8.89,6.49-10.36,5s3.55-8.88,5-10.35a3.77,3.77,0,0,1,5.34,5.33Z" style="fill:#fff;opacity:0.6000000000000001"></path><path d="M315.92,154.47c1.48-1.47,8.89-6.49,10.36-5s-3.55,8.89-5,10.36a3.78,3.78,0,0,1-5.34-5.34Z" style="fill:#407BFF"></path><path d="M315.92,154.47c1.48-1.47,8.89-6.49,10.36-5s-3.55,8.89-5,10.36a3.78,3.78,0,0,1-5.34-5.34Z" style="fill:#fff;opacity:0.6000000000000001"></path><path d="M337.2,159.81c-1.47-1.47-6.49-8.88-5-10.36s8.88,3.55,10.36,5a3.78,3.78,0,0,1-5.34,5.34Z" style="fill:#407BFF"></path><path d="M337.2,159.81c-1.47-1.47-6.49-8.88-5-10.36s8.88,3.55,10.36,5a3.78,3.78,0,0,1-5.34,5.34Z" style="fill:#fff;opacity:0.6000000000000001"></path><path d="M321.26,133.2c1.47,1.47,6.49,8.88,5,10.35s-8.88-3.55-10.36-5a3.77,3.77,0,0,1,5.34-5.33Z" style="fill:#407BFF"></path><path d="M321.26,133.2c1.47,1.47,6.49,8.88,5,10.35s-8.88-3.55-10.36-5a3.77,3.77,0,0,1,5.34-5.33Z" style="fill:#fff;opacity:0.6000000000000001"></path><path d="M335.67,146.5a6.44,6.44,0,1,1-6.44-6.43A6.44,6.44,0,0,1,335.67,146.5Z" style="fill:#407BFF"></path><path d="M335.67,146.5a6.44,6.44,0,1,1-6.44-6.43A6.44,6.44,0,0,1,335.67,146.5Z" style="fill:#fff;opacity:0.4"></path><path d="M361.31,307.74c0,1-.85,5.43-1.89,5.43s-1.89-4.39-1.89-5.43a1.89,1.89,0,1,1,3.78,0Z" style="fill:#407BFF"></path><path d="M361.31,307.74c0,1-.85,5.43-1.89,5.43s-1.89-4.39-1.89-5.43a1.89,1.89,0,1,1,3.78,0Z" style="fill:#fff;opacity:0.6000000000000001"></path><path d="M357.53,322.78c0-1,.85-5.44,1.89-5.44s1.89,4.4,1.89,5.44a1.89,1.89,0,1,1-3.78,0Z" style="fill:#407BFF"></path><path d="M357.53,322.78c0-1,.85-5.44,1.89-5.44s1.89,4.4,1.89,5.44a1.89,1.89,0,1,1-3.78,0Z" style="fill:#fff;opacity:0.6000000000000001"></path><path d="M366.94,317.14c-1,0-5.43-.84-5.43-1.88s4.39-1.89,5.43-1.89a1.89,1.89,0,1,1,0,3.77Z" style="fill:#407BFF"></path><path d="M366.94,317.14c-1,0-5.43-.84-5.43-1.88s4.39-1.89,5.43-1.89a1.89,1.89,0,1,1,0,3.77Z" style="fill:#fff;opacity:0.6000000000000001"></path><path d="M351.9,313.37c1,0,5.43.85,5.43,1.89s-4.39,1.88-5.43,1.88a1.89,1.89,0,1,1,0-3.77Z" style="fill:#407BFF"></path><path d="M351.9,313.37c1,0,5.43.85,5.43,1.89s-4.39,1.88-5.43,1.88a1.89,1.89,0,1,1,0-3.77Z" style="fill:#fff;opacity:0.6000000000000001"></path><path d="M366.07,311.27c-.73.74-4.44,3.25-5.17,2.51s1.77-4.44,2.51-5.18a1.88,1.88,0,0,1,2.66,2.67Z" style="fill:#407BFF"></path><path d="M366.07,311.27c-.73.74-4.44,3.25-5.17,2.51s1.77-4.44,2.51-5.18a1.88,1.88,0,0,1,2.66,2.67Z" style="fill:#fff;opacity:0.6000000000000001"></path><path d="M352.77,319.24c.73-.73,4.44-3.24,5.18-2.51s-1.78,4.44-2.52,5.18a1.88,1.88,0,0,1-2.66-2.67Z" style="fill:#407BFF"></path><path d="M352.77,319.24c.73-.73,4.44-3.24,5.18-2.51s-1.78,4.44-2.52,5.18a1.88,1.88,0,0,1-2.66-2.67Z" style="fill:#fff;opacity:0.6000000000000001"></path><path d="M363.41,321.91c-.74-.74-3.25-4.44-2.51-5.18s4.44,1.78,5.17,2.51a1.88,1.88,0,1,1-2.66,2.67Z" style="fill:#407BFF"></path><path d="M363.41,321.91c-.74-.74-3.25-4.44-2.51-5.18s4.44,1.78,5.17,2.51a1.88,1.88,0,1,1-2.66,2.67Z" style="fill:#fff;opacity:0.6000000000000001"></path><path d="M355.43,308.6c.74.74,3.25,4.45,2.52,5.18s-4.45-1.77-5.18-2.51a1.88,1.88,0,0,1,2.66-2.67Z" style="fill:#407BFF"></path><path d="M355.43,308.6c.74.74,3.25,4.45,2.52,5.18s-4.45-1.77-5.18-2.51a1.88,1.88,0,0,1,2.66-2.67Z" style="fill:#fff;opacity:0.6000000000000001"></path><path d="M362.64,315.26a3.22,3.22,0,1,1-3.22-3.22A3.22,3.22,0,0,1,362.64,315.26Z" style="fill:#407BFF"></path><path d="M362.64,315.26a3.22,3.22,0,1,1-3.22-3.22A3.22,3.22,0,0,1,362.64,315.26Z" style="fill:#fff;opacity:0.4"></path><path d="M115.34,320c0,1-.84,5.43-1.88,5.43s-1.89-4.39-1.89-5.43a1.89,1.89,0,1,1,3.77,0Z" style="fill:#407BFF"></path><path d="M115.34,320c0,1-.84,5.43-1.88,5.43s-1.89-4.39-1.89-5.43a1.89,1.89,0,1,1,3.77,0Z" style="fill:#fff;opacity:0.6000000000000001"></path><path d="M111.57,335.08c0-1,.84-5.43,1.89-5.43s1.88,4.39,1.88,5.43a1.89,1.89,0,1,1-3.77,0Z" style="fill:#407BFF"></path><path d="M111.57,335.08c0-1,.84-5.43,1.89-5.43s1.88,4.39,1.88,5.43a1.89,1.89,0,1,1-3.77,0Z" style="fill:#fff;opacity:0.6000000000000001"></path><path d="M121,329.45c-1,0-5.44-.85-5.44-1.89s4.4-1.89,5.44-1.89a1.89,1.89,0,1,1,0,3.78Z" style="fill:#407BFF"></path><path d="M121,329.45c-1,0-5.44-.85-5.44-1.89s4.4-1.89,5.44-1.89a1.89,1.89,0,1,1,0,3.78Z" style="fill:#fff;opacity:0.6000000000000001"></path><path d="M105.93,325.67c1,0,5.44.85,5.44,1.89s-4.39,1.89-5.44,1.89a1.89,1.89,0,0,1,0-3.78Z" style="fill:#407BFF"></path><path d="M105.93,325.67c1,0,5.44.85,5.44,1.89s-4.39,1.89-5.44,1.89a1.89,1.89,0,0,1,0-3.78Z" style="fill:#fff;opacity:0.6000000000000001"></path><path d="M120.11,323.57c-.74.74-4.44,3.25-5.18,2.51s1.78-4.44,2.51-5.17a1.88,1.88,0,1,1,2.67,2.66Z" style="fill:#407BFF"></path><path d="M120.11,323.57c-.74.74-4.44,3.25-5.18,2.51s1.78-4.44,2.51-5.17a1.88,1.88,0,1,1,2.67,2.66Z" style="fill:#fff;opacity:0.6000000000000001"></path><path d="M106.8,331.55c.74-.74,4.44-3.25,5.18-2.51s-1.77,4.44-2.51,5.17a1.88,1.88,0,1,1-2.67-2.66Z" style="fill:#407BFF"></path><path d="M106.8,331.55c.74-.74,4.44-3.25,5.18-2.51s-1.77,4.44-2.51,5.17a1.88,1.88,0,1,1-2.67-2.66Z" style="fill:#fff;opacity:0.6000000000000001"></path><path d="M117.44,334.21c-.73-.73-3.24-4.44-2.51-5.17s4.44,1.77,5.18,2.51a1.88,1.88,0,1,1-2.67,2.66Z" style="fill:#407BFF"></path><path d="M117.44,334.21c-.73-.73-3.24-4.44-2.51-5.17s4.44,1.77,5.18,2.51a1.88,1.88,0,1,1-2.67,2.66Z" style="fill:#fff;opacity:0.6000000000000001"></path><path d="M109.47,320.91c.74.73,3.25,4.44,2.51,5.17s-4.44-1.77-5.18-2.51a1.88,1.88,0,1,1,2.67-2.66Z" style="fill:#407BFF"></path><path d="M109.47,320.91c.74.73,3.25,4.44,2.51,5.17s-4.44-1.77-5.18-2.51a1.88,1.88,0,1,1,2.67-2.66Z" style="fill:#fff;opacity:0.6000000000000001"></path><circle cx="113.46" cy="327.56" r="3.22" style="fill:#407BFF"></circle><circle cx="113.46" cy="327.56" r="3.22" style="fill:#fff;opacity:0.4"></circle><path d="M338.79,171.46c1,1,4.53,6.19,3.5,7.22s-6.19-2.48-7.21-3.5a2.63,2.63,0,1,1,3.71-3.72Z" style="fill:#407BFF"></path><path d="M338.79,171.46c1,1,4.53,6.19,3.5,7.22s-6.19-2.48-7.21-3.5a2.63,2.63,0,1,1,3.71-3.72Z" style="fill:#fff;opacity:0.8"></path><path d="M347.71,187.81c-1-1-4.52-6.18-3.49-7.21s6.18,2.47,7.21,3.5a2.63,2.63,0,0,1-3.72,3.71Z" style="fill:#407BFF"></path><path d="M347.71,187.81c-1-1-4.52-6.18-3.49-7.21s6.18,2.47,7.21,3.5a2.63,2.63,0,0,1-3.72,3.71Z" style="fill:#fff;opacity:0.8"></path><path d="M333.94,179.41c1.4-.37,7.62-.82,8,.58s-5.24,4.12-6.64,4.5a2.63,2.63,0,1,1-1.36-5.08Z" style="fill:#407BFF"></path><path d="M333.94,179.41c1.4-.37,7.62-.82,8,.58s-5.24,4.12-6.64,4.5a2.63,2.63,0,1,1-1.36-5.08Z" style="fill:#fff;opacity:0.8"></path><path d="M352.56,179.86c-1.4.38-7.62.83-8-.57s5.23-4.13,6.63-4.5a2.62,2.62,0,1,1,1.36,5.07Z" style="fill:#407BFF"></path><path d="M352.56,179.86c-1.4.38-7.62.83-8-.57s5.23-4.13,6.63-4.5a2.62,2.62,0,1,1,1.36,5.07Z" style="fill:#fff;opacity:0.8"></path><path d="M338.4,187.59c.38-1.4,3.1-7,4.5-6.64s1,6.6.58,8a2.63,2.63,0,1,1-5.08-1.36Z" style="fill:#407BFF"></path><path d="M338.4,187.59c.38-1.4,3.1-7,4.5-6.64s1,6.6.58,8a2.63,2.63,0,1,1-5.08-1.36Z" style="fill:#fff;opacity:0.8"></path><path d="M348.1,171.69c-.37,1.4-3.09,7-4.49,6.63s-1-6.59-.58-8a2.62,2.62,0,1,1,5.07,1.36Z" style="fill:#407BFF"></path><path d="M348.1,171.69c-.37,1.4-3.09,7-4.49,6.63s-1-6.59-.58-8a2.62,2.62,0,1,1,5.07,1.36Z" style="fill:#fff;opacity:0.8"></path><path d="M345.77,177.12a3.56,3.56,0,1,1-5,0A3.57,3.57,0,0,1,345.77,177.12Z" style="fill:#407BFF"></path><path d="M345.77,177.12a3.56,3.56,0,1,1-5,0A3.57,3.57,0,0,1,345.77,177.12Z" style="fill:#fff;opacity:0.4"></path><path d="M374.39,301.72c.63.62,2.76,3.78,2.14,4.41s-3.79-1.51-4.42-2.14a1.61,1.61,0,0,1,2.28-2.27Z" style="fill:#407BFF"></path><path d="M374.39,301.72c.63.62,2.76,3.78,2.14,4.41s-3.79-1.51-4.42-2.14a1.61,1.61,0,0,1,2.28-2.27Z" style="fill:#fff;opacity:0.8"></path><path d="M379.84,311.72c-.62-.63-2.76-3.79-2.14-4.41s3.79,1.51,4.42,2.13a1.61,1.61,0,1,1-2.28,2.28Z" style="fill:#407BFF"></path><path d="M379.84,311.72c-.62-.63-2.76-3.79-2.14-4.41s3.79,1.51,4.42,2.13a1.61,1.61,0,1,1-2.28,2.28Z" style="fill:#fff;opacity:0.8"></path><path d="M371.42,306.58c.86-.23,4.66-.51,4.89.35s-3.2,2.52-4.06,2.75a1.6,1.6,0,1,1-.83-3.1Z" style="fill:#407BFF"></path><path d="M371.42,306.58c.86-.23,4.66-.51,4.89.35s-3.2,2.52-4.06,2.75a1.6,1.6,0,1,1-.83-3.1Z" style="fill:#fff;opacity:0.8"></path><path d="M382.81,306.85c-.86.23-4.66.51-4.89-.35s3.2-2.52,4.06-2.75a1.6,1.6,0,1,1,.83,3.1Z" style="fill:#407BFF"></path><path d="M382.81,306.85c-.86.23-4.66.51-4.89-.35s3.2-2.52,4.06-2.75a1.6,1.6,0,1,1,.83,3.1Z" style="fill:#fff;opacity:0.8"></path><path d="M374.15,311.58c.23-.86,1.89-4.29,2.75-4.06s.58,4,.35,4.89a1.6,1.6,0,1,1-3.1-.83Z" style="fill:#407BFF"></path><path d="M374.15,311.58c.23-.86,1.89-4.29,2.75-4.06s.58,4,.35,4.89a1.6,1.6,0,1,1-3.1-.83Z" style="fill:#fff;opacity:0.8"></path><path d="M380.08,301.85c-.23.86-1.89,4.29-2.75,4.06s-.58-4-.35-4.89a1.6,1.6,0,0,1,3.1.83Z" style="fill:#407BFF"></path><path d="M380.08,301.85c-.23.86-1.89,4.29-2.75,4.06s-.58-4-.35-4.89a1.6,1.6,0,0,1,3.1.83Z" style="fill:#fff;opacity:0.8"></path><path d="M378.65,305.18a2.17,2.17,0,1,1-3.07,0A2.17,2.17,0,0,1,378.65,305.18Z" style="fill:#407BFF"></path><path d="M378.65,305.18a2.17,2.17,0,1,1-3.07,0A2.17,2.17,0,0,1,378.65,305.18Z" style="fill:#fff;opacity:0.4"></path><path d="M234.72,146.28c.62.63,2.76,3.78,2.13,4.41s-3.78-1.51-4.41-2.14a1.61,1.61,0,0,1,2.28-2.27Z" style="fill:#407BFF"></path><path d="M234.72,146.28c.62.63,2.76,3.78,2.13,4.41s-3.78-1.51-4.41-2.14a1.61,1.61,0,0,1,2.28-2.27Z" style="fill:#fff;opacity:0.8"></path><path d="M240.17,156.28c-.63-.63-2.77-3.78-2.14-4.41s3.79,1.51,4.41,2.14a1.61,1.61,0,0,1-2.27,2.27Z" style="fill:#407BFF"></path><path d="M240.17,156.28c-.63-.63-2.77-3.78-2.14-4.41s3.79,1.51,4.41,2.14a1.61,1.61,0,0,1-2.27,2.27Z" style="fill:#fff;opacity:0.8"></path><path d="M231.75,151.14c.86-.23,4.66-.5,4.89.36s-3.2,2.52-4.06,2.75a1.61,1.61,0,0,1-.83-3.11Z" style="fill:#407BFF"></path><path d="M231.75,151.14c.86-.23,4.66-.5,4.89.36s-3.2,2.52-4.06,2.75a1.61,1.61,0,0,1-.83-3.11Z" style="fill:#fff;opacity:0.8"></path><path d="M243.14,151.42c-.86.23-4.66.5-4.89-.36s3.2-2.52,4.06-2.75a1.61,1.61,0,0,1,.83,3.11Z" style="fill:#407BFF"></path><path d="M243.14,151.42c-.86.23-4.66.5-4.89-.36s3.2-2.52,4.06-2.75a1.61,1.61,0,0,1,.83,3.11Z" style="fill:#fff;opacity:0.8"></path><path d="M234.48,156.14c.23-.85,1.89-4.29,2.75-4.06s.58,4,.35,4.89a1.6,1.6,0,1,1-3.1-.83Z" style="fill:#407BFF"></path><path d="M234.48,156.14c.23-.85,1.89-4.29,2.75-4.06s.58,4,.35,4.89a1.6,1.6,0,1,1-3.1-.83Z" style="fill:#fff;opacity:0.8"></path><path d="M240.41,146.42c-.23.86-1.89,4.29-2.75,4.06s-.58-4-.35-4.89a1.6,1.6,0,1,1,3.1.83Z" style="fill:#407BFF"></path><path d="M240.41,146.42c-.23.86-1.89,4.29-2.75,4.06s-.58-4-.35-4.89a1.6,1.6,0,1,1,3.1.83Z" style="fill:#fff;opacity:0.8"></path><path d="M239,149.74a2.17,2.17,0,1,1-3.07,0A2.18,2.18,0,0,1,239,149.74Z" style="fill:#407BFF"></path><path d="M239,149.74a2.17,2.17,0,1,1-3.07,0A2.18,2.18,0,0,1,239,149.74Z" style="fill:#fff;opacity:0.4"></path><path d="M102.78,305.56c.63.62,2.77,3.78,2.14,4.41s-3.78-1.51-4.41-2.14a1.61,1.61,0,0,1,2.27-2.27Z" style="fill:#407BFF"></path><path d="M102.78,305.56c.63.62,2.77,3.78,2.14,4.41s-3.78-1.51-4.41-2.14a1.61,1.61,0,0,1,2.27-2.27Z" style="fill:#fff;opacity:0.8"></path><path d="M108.24,315.56c-.63-.63-2.77-3.79-2.14-4.42s3.78,1.52,4.41,2.14a1.61,1.61,0,0,1-2.27,2.28Z" style="fill:#407BFF"></path><path d="M108.24,315.56c-.63-.63-2.77-3.79-2.14-4.42s3.78,1.52,4.41,2.14a1.61,1.61,0,0,1-2.27,2.28Z" style="fill:#fff;opacity:0.8"></path><path d="M99.82,310.42c.85-.23,4.66-.51,4.89.35s-3.2,2.52-4.06,2.75a1.6,1.6,0,1,1-.83-3.1Z" style="fill:#407BFF"></path><path d="M99.82,310.42c.85-.23,4.66-.51,4.89.35s-3.2,2.52-4.06,2.75a1.6,1.6,0,1,1-.83-3.1Z" style="fill:#fff;opacity:0.8"></path><path d="M111.21,310.69c-.86.23-4.66.51-4.89-.35s3.2-2.52,4.05-2.75a1.61,1.61,0,0,1,.84,3.1Z" style="fill:#407BFF"></path><path d="M111.21,310.69c-.86.23-4.66.51-4.89-.35s3.2-2.52,4.05-2.75a1.61,1.61,0,0,1,.84,3.1Z" style="fill:#fff;opacity:0.8"></path><path d="M102.54,315.42c.23-.86,1.9-4.29,2.76-4.06s.58,4,.35,4.89a1.61,1.61,0,1,1-3.11-.83Z" style="fill:#407BFF"></path><path d="M102.54,315.42c.23-.86,1.9-4.29,2.76-4.06s.58,4,.35,4.89a1.61,1.61,0,1,1-3.11-.83Z" style="fill:#fff;opacity:0.8"></path><path d="M108.48,305.69c-.23.86-1.9,4.29-2.75,4.06s-.59-4-.36-4.89a1.61,1.61,0,0,1,3.11.83Z" style="fill:#407BFF"></path><path d="M108.48,305.69c-.23.86-1.9,4.29-2.75,4.06s-.59-4-.36-4.89a1.61,1.61,0,0,1,3.11.83Z" style="fill:#fff;opacity:0.8"></path><path d="M107.05,309a2.17,2.17,0,1,1-3.08,0A2.17,2.17,0,0,1,107.05,309Z" style="fill:#407BFF"></path><path d="M107.05,309a2.17,2.17,0,1,1-3.08,0A2.17,2.17,0,0,1,107.05,309Z" style="fill:#fff;opacity:0.4"></path></g><g id="freepik--air-balloon--inject-228"><path d="M359.61,267.44H349.56a2.43,2.43,0,0,1-2.42-2.71l.68-6h13.52l.69,6A2.44,2.44,0,0,1,359.61,267.44Z" style="fill:#407BFF"></path><path d="M346.43,258.07h16.31a0,0,0,0,1,0,0v1.25a1.18,1.18,0,0,1-1.18,1.18H347.61a1.18,1.18,0,0,1-1.18-1.18v-1.25A0,0,0,0,1,346.43,258.07Z" style="fill:#263238"></path><path d="M347.12,258.62a.55.55,0,0,1-.5-.32l-12-26.11a.55.55,0,0,1,1-.46l12,26.11a.55.55,0,0,1-.27.73A.46.46,0,0,1,347.12,258.62Z" style="fill:#263238"></path><path d="M362,258.62a.5.5,0,0,1-.23-.05.56.56,0,0,1-.27-.73l12-26.11a.56.56,0,0,1,.74-.27.55.55,0,0,1,.27.73l-12,26.11A.57.57,0,0,1,362,258.62Z" style="fill:#263238"></path><path d="M346.43,258.07h16.31a0,0,0,0,1,0,0v1.25a1.18,1.18,0,0,1-1.18,1.18H347.61a1.18,1.18,0,0,1-1.18-1.18v-1.25A0,0,0,0,1,346.43,258.07Z" style="fill:#fff;opacity:0.5"></path><path d="M347.12,258.62a.55.55,0,0,1-.5-.32l-12-26.11a.55.55,0,0,1,1-.46l12,26.11a.55.55,0,0,1-.27.73A.46.46,0,0,1,347.12,258.62Z" style="fill:#fff;opacity:0.5"></path><path d="M362,258.62a.5.5,0,0,1-.23-.05.56.56,0,0,1-.27-.73l12-26.11a.56.56,0,0,1,.74-.27.55.55,0,0,1,.27.73l-12,26.11A.57.57,0,0,1,362,258.62Z" style="fill:#fff;opacity:0.5"></path><path d="M354.58,205.8a20.66,20.66,0,0,0-20.66,20.63l.05,0s0,2,20.66,2,20.57-2,20.57-2l.05-.05A20.67,20.67,0,0,0,354.58,205.8Z" style="fill:#407BFF"></path><g style="clip-path:url(#freepik--clip-path--inject-228)"><path d="M354.58,205.8a20.66,20.66,0,0,0-20.66,20.63l.05,0s0,2,20.66,2,20.57-2,20.57-2l.05-.05A20.67,20.67,0,0,0,354.58,205.8Z" style="fill:#407BFF;opacity:0.7000000000000001"></path></g><path d="M375.2,226.47s.1,2-20.57,2-20.66-2-20.66-2l-.05,0v0c0,9.18,8.46,13.16,14.28,19.65,1.89,2.11,2.3,6.14,2.3,6.14h8.17s.4-4,2.3-6.14c5.81-6.49,14.28-10.47,14.28-19.65v-.05Z" style="fill:#407BFF"></path><path d="M375.2,226.47s.1,2-20.57,2-20.66-2-20.66-2l-.05,0v0c0,9.18,8.46,13.16,14.28,19.65,1.89,2.11,2.3,6.14,2.3,6.14h8.17s.4-4,2.3-6.14c5.81-6.49,14.28-10.47,14.28-19.65v-.05Z" style="fill:#fff;opacity:0.5"></path><path d="M354.58,205.8c-4.95,0-9,9.26-9,20.67,0,.64,0,1.24.06,1.83,2.44.1,5.38.16,8.95.16s6.44-.06,8.86-.15c0-.59.05-1.2.05-1.84C363.54,215.06,359.53,205.8,354.58,205.8Z" style="fill:#fff;opacity:0.5"></path><path d="M354.63,228.46c-3.57,0-6.51-.06-8.95-.16.45,7.91,3.79,11.78,6.13,17.82a25.58,25.58,0,0,1,1,6.14h3.54a25.58,25.58,0,0,1,1-6.14c2.35-6,5.68-9.91,6.14-17.81C361.07,228.4,358.16,228.46,354.63,228.46Z" style="fill:#407BFF"></path><g style="clip-path:url(#freepik--clip-path-2--inject-228)"><path d="M354.63,228.46c-3.57,0-6.51-.06-8.95-.16.45,7.91,3.79,11.78,6.13,17.82a25.58,25.58,0,0,1,1,6.14h3.54a25.58,25.58,0,0,1,1-6.14c2.35-6,5.68-9.91,6.14-17.81C361.07,228.4,358.16,228.46,354.63,228.46Z" style="fill:#407BFF;opacity:0.7000000000000001"></path></g></g><g id="freepik--Rocket--inject-228"><path d="M254.22,146.38l41.43-8.24a.84.84,0,0,1,1,1.11l-14.47,39.69a.84.84,0,0,1-1.42.26l-27-31.46A.84.84,0,0,1,254.22,146.38Z" style="fill:#407BFF"></path><polygon points="259.55 164.98 250.56 169.82 255.76 168.23 246.03 175.47 256.15 170.25 243.07 181.46 256.22 172.85 246.94 183.46 259 173.16 252.21 181.41 260.62 174.21 257.4 181.38 264.56 170.83 259.55 164.98" style="fill:#407BFF"></polygon><polygon points="263.55 169.65 257.85 176.58 260.62 174.21 264.56 170.83 263.55 169.65" style="fill:#fff;opacity:0.5"></polygon><polygon points="252.58 178.62 263.36 169.42 260.71 166.34 256.15 170.25 248.71 176.63 261.85 168.02 252.58 178.62" style="fill:#fff;opacity:0.8"></polygon><polygon points="260.5 166.08 259.55 164.98 258.54 165.52 254.31 168.67 255.76 168.23 254.44 169.21 260.5 166.08" style="fill:#fff;opacity:0.30000000000000004"></polygon><path d="M264.78,172.55l4.67-6.49L265,160.88l-7.13,3.62A13.84,13.84,0,0,0,264.78,172.55Z" style="fill:#263238"></path><path d="M265,160.88l-1.67.85a13.9,13.9,0,0,0,5,5.85l1.1-1.52Z" style="fill:#fff;opacity:0.2"></path><path d="M261.55,162.64l-1.34.68a15.78,15.78,0,0,0,6.1,7.1l.87-1.21A22.46,22.46,0,0,1,261.55,162.64Z" style="fill:#fff;opacity:0.4"></path><path d="M271,169.75a18.76,18.76,0,0,1-9.37-10.93l30.05-25.76a24.45,24.45,0,0,1,17.88-5.84A24.48,24.48,0,0,1,301,144Z" style="fill:#407BFF"></path><path d="M271,169.75a18.76,18.76,0,0,1-9.37-10.93l30.05-25.76a24.45,24.45,0,0,1,17.88-5.84A24.48,24.48,0,0,1,301,144Z" style="fill:#fff;opacity:0.6000000000000001"></path><path d="M291.08,150a5.3,5.3,0,1,1,.57-7.47A5.29,5.29,0,0,1,291.08,150Z" style="fill:#407BFF"></path><path d="M283.61,149.43a5.29,5.29,0,0,1,.28-7.2l-.32.25a5.3,5.3,0,0,0,6.9,8,3.71,3.71,0,0,0,.29-.27A5.29,5.29,0,0,1,283.61,149.43Z" style="fill:#407BFF"></path><path d="M283.61,149.43a5.29,5.29,0,0,1,.28-7.2l-.32.25a5.3,5.3,0,0,0,6.9,8,3.71,3.71,0,0,0,.29-.27A5.29,5.29,0,0,1,283.61,149.43Z" style="opacity:0.30000000000000004"></path><path d="M290.07,148.83a3.75,3.75,0,1,1,.41-5.29A3.76,3.76,0,0,1,290.07,148.83Z" style="fill:#fff"></path><path d="M284.67,148.26l6.48-3.54a3.65,3.65,0,0,0-.62-1.1l-6.46,3.52A3.69,3.69,0,0,0,284.67,148.26Z" style="fill:#407BFF"></path><path d="M285.73,149.19l5.63-3.07a3.25,3.25,0,0,0,0-.7l-6.16,3.36A3.73,3.73,0,0,0,285.73,149.19Z" style="fill:#407BFF"></path><path d="M284.67,148.26l6.48-3.54a3.65,3.65,0,0,0-.62-1.1l-6.46,3.52A3.69,3.69,0,0,0,284.67,148.26Z" style="fill:#fff"></path><path d="M285.73,149.19l5.63-3.07a3.25,3.25,0,0,0,0-.7l-6.16,3.36A3.73,3.73,0,0,0,285.73,149.19Z" style="fill:#fff"></path></g><g id="freepik--Pegasus--inject-228"><path d="M143.29,155.3c-1.19,1.65-4.48,4.93-6.74,4.53S125,156.3,125,156.3l-3,4.9s-.58,2,.94,2.44l1.55.13s.8,4.06-1,6.3l-3.06-3.28s-2.27-3.84-1.52-5.34,4.24-9.5,5.69-9.34,7.73,2.08,8.79-.5,7.61-7.55,10.72-4.92C147,149.16,144.56,153.55,143.29,155.3Z" style="fill:#407BFF"></path><path d="M143.29,155.3c-1.19,1.65-4.48,4.93-6.74,4.53S125,156.3,125,156.3l-3,4.9s-.58,2,.94,2.44l1.55.13s.8,4.06-1,6.3l-3.06-3.28s-2.27-3.84-1.52-5.34,4.24-9.5,5.69-9.34,7.73,2.08,8.79-.5,7.61-7.55,10.72-4.92C147,149.16,144.56,153.55,143.29,155.3Z" style="fill:#fff;opacity:0.30000000000000004"></path><path d="M192.14,181.23s.63-3.51-1.73-4.5-2.74-4.46-3.34-8S178,163.2,181,159.11c.27-.36.09-.86.31-1.38l-8.15-2L166,162c2.16,2.25,5.91,5.51,10.05,6.29,6.47,1.22,6.39,4.77,9.07,11.35s9.39,10,9.39,10C197.88,183.16,192.14,181.23,192.14,181.23Z" style="fill:#407BFF"></path><path d="M192.14,181.23s.63-3.51-1.73-4.5-2.74-4.46-3.34-8S178,163.2,181,159.11c.27-.36.09-.86.31-1.38l-8.15-2L166,162c2.16,2.25,5.91,5.51,10.05,6.29,6.47,1.22,6.39,4.77,9.07,11.35s9.39,10,9.39,10C197.88,183.16,192.14,181.23,192.14,181.23Z" style="fill:#fff;opacity:0.2"></path><path d="M187.48,162.38a37.35,37.35,0,0,0,2.4,8.44,11.31,11.31,0,0,0,2.59,1.43,12.63,12.63,0,0,1-1.63-4.35,16.72,16.72,0,0,0,3.08,4.84,11.85,11.85,0,0,0,2.1.42,19.84,19.84,0,0,1-4.08-8.82c-1.09-5.52,4.31-10.47.08-18.48s-15-.52-15-.52l1.89,1.27c9.33,1.24,6.36,12.57,7.73,19.23a8,8,0,0,0,1.72,3.59A22.15,22.15,0,0,1,187.48,162.38Z" style="fill:#407BFF"></path><path d="M187.48,162.38a37.35,37.35,0,0,0,2.4,8.44,11.31,11.31,0,0,0,2.59,1.43,12.63,12.63,0,0,1-1.63-4.35,16.72,16.72,0,0,0,3.08,4.84,11.85,11.85,0,0,0,2.1.42,19.84,19.84,0,0,1-4.08-8.82c-1.09-5.52,4.31-10.47.08-18.48s-15-.52-15-.52l1.89,1.27c9.33,1.24,6.36,12.57,7.73,19.23a8,8,0,0,0,1.72,3.59A22.15,22.15,0,0,1,187.48,162.38Z" style="fill:#fff;opacity:0.30000000000000004"></path><path d="M146.57,138s4,7.28,21.14,5.55S183.84,157,180.82,161.1s5.49,6.15,6.08,9.66,1,7,3.34,8,1.73,4.49,1.73,4.49,5.74,1.93,2.41,8.45c0,0-6.73-3.47-9.4-10s-2.59-10.13-9.06-11.35-12-8.48-12-8.48-13.52,4.31-25-.35-15-11.18-12-17.28,6.28-13.69,4.82-16.12c0,0-4.67-.13-5.76-1.78l-2.87-.25s-4.31,3.46-6.36.09c0,0-3.18-5.87,1.74-6.09l8.33-3.6s6.06-4.5,10-1.6C136.84,114.81,148.2,120.12,146.57,138Z" style="fill:#407BFF"></path><path d="M146.57,138s4,7.28,21.14,5.55S183.84,157,180.82,161.1s5.49,6.15,6.08,9.66,1,7,3.34,8,1.73,4.49,1.73,4.49,5.74,1.93,2.41,8.45c0,0-6.73-3.47-9.4-10s-2.59-10.13-9.06-11.35-12-8.48-12-8.48-13.52,4.31-25-.35-15-11.18-12-17.28,6.28-13.69,4.82-16.12c0,0-4.67-.13-5.76-1.78l-2.87-.25s-4.31,3.46-6.36.09c0,0-3.18-5.87,1.74-6.09l8.33-3.6s6.06-4.5,10-1.6C136.84,114.81,148.2,120.12,146.57,138Z" style="fill:#fff;opacity:0.6000000000000001"></path><path d="M140.63,153.76l-1.08-3.1-2.2,1.48-7.12,4.3a30.67,30.67,0,0,0,8.67,5,35.21,35.21,0,0,0,16,2C138.57,162.06,140.63,153.76,140.63,153.76Z" style="opacity:0.1"></path><path d="M117.13,121.27s.46,1-.48,1.26C116.65,122.53,119.08,122.81,117.13,121.27Z" style="fill:#263238;opacity:0.5"></path><path d="M159.47,158.41c-1.81.36,2.45,4.16-4.6,5a45.27,45.27,0,0,0,9.07-1.65S161.28,158.05,159.47,158.41Z" style="opacity:0.1"></path><path d="M129.62,110.19c2.28-2,15.54,3.86,17.54,15.6,1.23,7.2-1.92,11.28-1.92,11.28a23.32,23.32,0,0,0,.44-8.73,25.72,25.72,0,0,0-3.27-7.78,5,5,0,0,1,.22,3.53,8,8,0,0,0-3.09-6.56,18.44,18.44,0,0,0-6.14-3.3,2.66,2.66,0,0,1-2.72.17Z" style="fill:#407BFF"></path><path d="M129.62,110.19c2.28-2,15.54,3.86,17.54,15.6,1.23,7.2-1.92,11.28-1.92,11.28a23.32,23.32,0,0,0,.44-8.73,25.72,25.72,0,0,0-3.27-7.78,5,5,0,0,1,.22,3.53,8,8,0,0,0-3.09-6.56,18.44,18.44,0,0,0-6.14-3.3,2.66,2.66,0,0,1-2.72.17Z" style="fill:#fff;opacity:0.30000000000000004"></path><path d="M128.69,117.44c-.11.27-.35.43-.53.35s-.22-.36-.11-.63.35-.43.53-.35S128.81,117.17,128.69,117.44Z" style="fill:#263238"></path><path d="M129.72,116.09a.17.17,0,0,1-.17,0,1.39,1.39,0,0,0-1.24.19.17.17,0,0,1-.25,0,.17.17,0,0,1,0-.24,1.75,1.75,0,0,1,1.57-.26.16.16,0,0,1,.11.21A.12.12,0,0,1,129.72,116.09Z" style="fill:#263238"></path><path d="M119.25,126.09a.18.18,0,0,1-.17,0,1.39,1.39,0,0,0-1.24.19.17.17,0,0,1-.25,0,.17.17,0,0,1,0-.24,1.75,1.75,0,0,1,1.57-.26.16.16,0,0,1,.11.21A.2.2,0,0,1,119.25,126.09Z" style="fill:#263238"></path><path d="M133.15,115s-3.15-1-1.14-5C132,110,136.4,115.35,133.15,115Z" style="fill:#407BFF"></path><path d="M133.15,115s-3.15-1-1.14-5C132,110,136.4,115.35,133.15,115Z" style="fill:#fff;opacity:0.5"></path><path d="M132.83,113.42a5.79,5.79,0,0,1-1.24-2.39c-.67,2,.14,3.09.82,3.59l.05,0C133.41,115.34,133.76,114.39,132.83,113.42Z" style="opacity:0.2"></path><path d="M139.8,156.06c-1.27,1.76-4.79,5.28-7.21,4.85s-12.38-3.78-12.38-3.78L117,162.37s-.62,2.1,1,2.61l1.66.14s.85,4.34-1.13,6.74l-3.27-3.51s-2.44-4.11-1.63-5.71,4.54-10.16,6.08-10,8.28,2.22,9.41-.54,8.15-8.07,11.47-5.26C143.72,149.49,141.16,154.19,139.8,156.06Z" style="fill:#407BFF"></path><path d="M139.8,156.06c-1.27,1.76-4.79,5.28-7.21,4.85s-12.38-3.78-12.38-3.78L117,162.37s-.62,2.1,1,2.61l1.66.14s.85,4.34-1.13,6.74l-3.27-3.51s-2.44-4.11-1.63-5.71,4.54-10.16,6.08-10,8.28,2.22,9.41-.54,8.15-8.07,11.47-5.26C143.72,149.49,141.16,154.19,139.8,156.06Z" style="fill:#fff;opacity:0.6000000000000001"></path><path d="M146.52,140.73s10.42-6.32,6.86-16.38,11.22-19.27,32-26.7c0,0,2.84,7.17-15,13.09l13.74-2.49s-2.18,9.11-16.45,9.58L179.22,120s-3.34,6.24-13.49,3.49l6.59,5a4.51,4.51,0,0,1-5.7,1.72S165.94,151.83,146.52,140.73Z" style="fill:#407BFF"></path><path d="M146.52,140.73s10.42-6.32,6.86-16.38,11.22-19.27,32-26.7c0,0,2.84,7.17-15,13.09l13.74-2.49s-2.18,9.11-16.45,9.58L179.22,120s-3.34,6.24-13.49,3.49l6.59,5a4.51,4.51,0,0,1-5.7,1.72S165.94,151.83,146.52,140.73Z" style="fill:#fff;opacity:0.6000000000000001"></path><path d="M164.14,110.53s5,1.27.13,5.88c0,0,3.16,2.84-2.5,7.09,0,0,3.59,1.6-.55,6.56,0,0,5.85-3.65,1.71-6.78,0,0,6-4.44,2.46-6.77C165.39,116.51,171.21,111.07,164.14,110.53Z" style="fill:#263238;opacity:0.2"></path><path d="M159.31,115.52s3,.77.08,3.55c0,0,1.9,1.72-1.51,4.28,0,0,2.16,1-.33,4,0,0,3.53-2.2,1-4.09,0,0,3.61-2.68,1.49-4.09C160.07,119.13,163.58,115.84,159.31,115.52Z" style="fill:#263238;opacity:0.2"></path></g></svg>